<svg height="70pt" preserveAspectRatio="xMidYMid meet" viewBox="0 0 500 500" width="70pt" xmlns="http://www.w3.org/2000/svg"><g transform="matrix(.1 0 0 -.1 0 500)"><path d="m647 4630c-4-15-14-20-37-20h-32l6-182c3-101 11-1029 17-2063s12-1886 15-1892c2-7 12-13 23-13 10 0 21-7 25-15 3-8 10-15 17-15 6 0 322 99 703 221 380 121 876 279 1101 351 226 72 414 134 418 138 8 8-19 116-34 134-4 4-476-141-1049-324-572-183-1044-330-1047-327-3 4-7 35-9 69-6 111-27 3768-22 3774 15 14 1001-251 1755-472 216-63 397-113 402-110 13 8 44 127 34 136-13 12-805 242-1268 368-335 92-991 262-1008 262-3 0-7-9-10-20z"/><path d="m2564 3578c3-57 5-104 6-105 0-2 9-3 19-3 16 0 21 8 24 48l3 47 2-47 2-46 179-1h180l4 52 3 52 2-52c2-46 5-53 22-53 12 0 20 7 20 17 0 9 3 13 7 10 3-4 6-23 5-42l-1-35h48 49l1 72c0 39 3 74 6 76 5 5 9-83 5-125-1-17 4-23 18-23 27 0 28 7 30 143l2 117h-321-321zm473-30c-3-8-6-5-6 6-1 11 2 17 5 13 3-3 4-12 1-19zm63-78c0-5-5-10-11-10-5 0-7 5-4 10 3 6 8 10 11 10 2 0 4-4 4-10z"/><path d="m3510 3655c0-20-5-25-25-25-21 0-25-5-25-30 0-26-4-30-26-30-24 0-25-2-24-52 1-29 1-62 0-73-1-18-2-18-11 3-11 28-33 24-37-6-3-21 0-22 96-22 54 0 101 3 105 6 10 10-4 34-22 35-12 0-12 2 4 9 11 4 30 6 43 3 17-4 22-1 22 16 0 16-6 21-25 21-14 0-25 5-25 10 0 6 11 10 25 10 16 0 25 6 25 15 0 8-5 15-12 15-22 0 0 11 30 15 17 2 36 6 41 9s14-1 21-9c9-10 9-15 1-15-6 0-11-7-11-15 0-9 9-15 21-15 17 0 20 4 15 24-7 28 2 40 21 25 10-9 17-8 28 1 8 7 15 11 16 9 0-2 1-22 2-44 2-38 1-40-25-37-23 3-27 0-22-13 4-10 14-15 25-12 12 3 19 0 19-9 0-8-10-14-24-14-31 0-29-34 2-38 12-2 22-8 22-13 0-6-5-7-10-4-12 7-40-12-40-27 0-6 11-8 25-6 17 4 25 1 25-8 0-8-11-14-25-14-27 0-32-12-12-29 10-8 17-7 25 1 9 9 12 8 12-5 0-10-8-17-20-17-14 0-20-7-20-21 0-16 5-20 20-16 18 5 20 0 20-54v-59h31c19 0 28 4 23 11-4 8 0 9 15 4 16-5 21-2 21 10 0 11-5 15-15 11-16-6-16-5-19 53-1 26 2 36 9 31 14-12 39 5 30 20-4 6-13 9-20 6-7-2-16 2-19 10-3 9 1 14 14 14 25 0 36 18 15 27-10 3-21 0-26-8-6-9-9-10-9-2 0 19 31 31 68 27 25-3 32 0 32 14s2 14 9 3c10-16 99-21 105-6 3 6 5 5 5-2 1-14 40-5 43 11 0 6 2 16 3 21 2 6 3 22 4 38 1 22 6 27 26 27s25 5 25 25 5 25 24 25c21 0 25 6 31 52 5 36 4 53-4 56-6 2-8 8-5 13 3 6 0 16-6 25-10 11-16 12-26 3-11-9-17-9-28 0-10 9-16 8-26-3-6-9-9-20-5-26 3-5 0-10-8-10s-14 8-13 18c0 9-6 17-14 17s-14-8-14-17c1-10-4-18-12-18-7 0-11 6-8 13 7 18-22 42-31 27-5-8-11-7-22 1-11 10-19 10-33 1s-20-8-23 1-9 9-24 0c-15-8-23-9-31-1s-15 8-26-1c-8-7-17-8-20-2-7 10-81 9-92-2-4-4-13-2-21 4-9 9-17 8-27 0-8-7-17-8-19-3-3 4-40 9-81 10-75 3-76 3-76-23zm489-26c-22-14-33-10-19 6 7 8 17 12 22 9 6-4 5-10-3-15zm166 11c3-5-3-10-15-10s-18 5-15 10c3 6 10 10 15 10s12-4 15-10zm-530-9c3-5 1-12-5-16-5-3-10 1-10 9 0 18 6 21 15 7zm49-12c-3-5-10-7-15-3-5 3-7 10-3 15 3 5 10 7 15 3 5-3 7-10 3-15zm50 0c-3-5-10-7-15-3-5 3-7 10-3 15 3 5 10 7 15 3 5-3 7-10 3-15zm55 0c-15-9-32-2-24 11 3 5 13 6 21 3 12-4 13-8 3-14zm55 0c-3-5-10-7-15-3-5 3-7 10-3 15 3 5 10 7 15 3 5-3 7-10 3-15zm50 0c-3-5-10-7-15-3-5 3-7 10-3 15 3 5 10 7 15 3 5-3 7-10 3-15zm50 0c-3-5-10-7-15-3-5 3-7 10-3 15 3 5 10 7 15 3 5-3 7-10 3-15zm-54-39c0-5-5-10-11-10-5 0-7 5-4 10 3 6 8 10 11 10 2 0 4-4 4-10zm55 0c3-5 1-10-4-10-6 0-11 5-11 10 0 6 2 10 4 10 3 0 8-4 11-10zm-455-110c10 0 21 8 23 18 4 13 5 11 6-5 1-21-4-23-41-22-24 0-37 3-30 6 7 2 13 25 14 51l2 47 3-47c3-39 8-48 23-48z"/><path d="m1757 3650c6-24 26-21 31 3 2 11-3 17-16 17-15 0-19-5-15-20z"/><path d="m1807 3650c3-11 14-20 24-20 12 0 19 7 19 20 0 14-7 20-24 20-19 0-23-4-19-20z"/><path d="m1860 3650c0-13 7-20 20-20s20 7 20 20-7 20-20 20-20-7-20-20z"/><path d="m1910 3650c0-13 7-20 20-20s20 7 20 20-7 20-20 20-20-7-20-20z"/><path d="m1960 3650c0-24 35-28 44-4 9 23 8 24-19 24-18 0-25-5-25-20z"/><path d="m2027 3663c-12-11-8-23 8-23 8 0 15 7 15 15 0 16-12 20-23 8z"/><path d="m2080 3655c0-8 5-15 10-15 6 0 10 7 10 15s-4 15-10 15c-5 0-10-7-10-15z"/><path d="m2130 3656c0-9 7-16 16-16s14 5 12 12c-6 18-28 21-28 4z"/><path d="m2186 3663c-11-11-6-23 9-23 8 0 15 4 15 9 0 13-16 22-24 14z"/><path d="m1605 3650c3-5 8-10 11-10 2 0 4 5 4 10 0 6-5 10-11 10-5 0-7-4-4-10z"/><path d="m1660 3649c0-5 5-7 10-4 6 3 10 8 10 11 0 2-4 4-10 4-5 0-10-5-10-11z"/><path d="m1710 3650c0-5 5-10 10-10 6 0 10 5 10 10 0 6-4 10-10 10-5 0-10-4-10-10z"/><path d="m1755 3610c-8-14 3-30 21-30 8 0 14 9 14 20 0 21-24 28-35 10z"/><path d="m1807 3614c-11-11 5-34 24-34 12 0 19 7 19 20 0 19-28 28-43 14z"/><path d="m1860 3600c0-13 7-20 20-20s20 7 20 20-7 20-20 20-20-7-20-20z"/><path d="m1910 3600c0-13 7-20 20-20s20 7 20 20-7 20-20 20-20-7-20-20z"/><path d="m1960 3600c0-14 7-20 23-20s23 6 23 20-7 20-23 20-23-6-23-20z"/><path d="m2020 3600c0-13 7-20 20-20s20 7 20 20-7 20-20 20-20-7-20-20z"/><path d="m2070 3600c0-13 7-20 20-20s20 7 20 20-7 20-20 20-20-7-20-20z"/><path d="m2126 3612c-19-18-2-30 45-30 41 0 49 3 47 17-2 11-15 16-45 18-23 0-44-1-47-5z"/><path d="m1660 3600c0-5 5-10 11-10 5 0 7 5 4 10-3 6-8 10-11 10-2 0-4-4-4-10z"/><path d="m1710 3600c0-5 5-10 10-10 6 0 10 5 10 10 0 6-4 10-10 10-5 0-10-4-10-10z"/><path d="m1765 3556c-19-14-19-15-2-22 22-8 30-1 25 21-3 14-5 14-23 1z"/><path d="m1808 3563c-2-5-4-26-3-48 0-34 4-41 23-43 16-3 22 2 22 16 0 11-6 23-12 26-10 5-10 7 0 12 20 9 15 44-7 44-11 0-21-3-23-7z"/><path d="m1860 3551c0-11 6-22 13-25 10-5 10-7 0-12-21-9-16-44 6-44 16 0 19 8 19 50s-3 50-19 50c-12 0-19-7-19-19z"/><path d="m1910 3520c0-43 3-50 20-50s20 7 20 50-3 50-20 50-20-7-20-50z"/><path d="m1960 3551c0-11 6-22 13-25 10-5 10-7 0-12-7-3-13-14-13-25 0-22 29-26 48-7 9 9 12 9 12 0 0-18 30-15 37 4 3 9 0 20-8 25-12 8-12 10 0 18 8 5 11 16 8 25-7 19-37 22-37 4 0-9-3-9-12 0-19 19-48 15-48-7zm66-22c10-17-13-36-27-22-12 12-4 33 11 33 5 0 12-5 16-11z"/><path d="m2077 3563c-3-5-4-26-3-48 1-28 5-40 16-40s16 13 17 48c1 34-2 47-12 47-8 0-16-3-18-7z"/><path d="m2123 3554c-3-9 0-20 8-25 12-8 12-10 0-18-17-11-7-41 13-41 8 0 17 6 19 13 4 9 8 9 15-2 12-17 42-8 42 13 0 8-6 17-12 20-10 5-10 7 0 12 6 3 12 12 12 20 0 21-30 30-42 13-7-11-11-11-15-1-7 17-32 15-40-4zm63-25c10-17-13-36-27-22-12 12-4 33 11 33 5 0 12-5 16-11z"/><path d="m3630 3550c0-13 7-20 20-20 21 0 25 8 12 25-13 18-32 15-32-5z"/><path d="m3746 3554c-18-18-18-19-2-22 10-2 20-1 23 1 2 3 3 13 1 23-3 16-4 16-22-2z"/><path d="m1605 3551c-3-5-1-12 5-16 5-3 10 1 10 9 0 18-6 21-15 7z"/><path d="m1660 3550c0-5 5-10 11-10 5 0 7 5 4 10-3 6-8 10-11 10-2 0-4-4-4-10z"/><path d="m1756 3501c-7-11 18-33 27-24 4 3 7 12 7 20 0 15-26 18-34 4z"/><path d="m3630 3490c0-18 3-19 20-10 11 6 20 15 20 20 0 6-9 10-20 10-13 0-20-7-20-20z"/><path d="m3680 3496c0-15 24-28 34-19 13 14 5 33-14 33-11 0-20-6-20-14z"/><path d="m1605 3490c3-5 8-10 11-10 2 0 4 5 4 10 0 6-5 10-11 10-5 0-7-4-4-10z"/><path d="m1660 3489c0-5 5-7 10-4 6 3 10 8 10 11 0 2-4 4-10 4-5 0-10-5-10-11z"/><path d="m1757 3440c3-11 12-20 19-20 8 0 14 9 14 20 0 13-7 20-19 20-14 0-18-5-14-20z"/><path d="m1815 3450c-4-6-3-16 3-22s12-6 17 2c4 6 3 16-3 22s-12 6-17-2z"/><path d="m1866 3452c-3-6-1-14 5-17 15-10 25 3 12 16-7 7-13 7-17 1z"/><path d="m1925 3449c-10-15 3-25 16-12 7 7 7 13 1 17-6 3-14 1-17-5z"/><path d="m1975 3450c-4-6-3-16 3-22s12-6 17 2c4 6 3 16-3 22s-12 6-17-2z"/><path d="m2020 3439c0-25 33-22 38 4 2 12-3 17-17 17-15 0-21-6-21-21z"/><path d="m2070 3440c0-13 7-20 20-20s20 7 20 20-7 20-20 20-20-7-20-20z"/><path d="m2124 3449c-11-18 7-27 49-26 30 2 42 6 42 17s-12 15-42 17c-24 0-45-3-49-8z"/><path d="m2570 3440c0-13 7-20 20-20s20 7 20 20-7 20-20 20-20-7-20-20z"/><path d="m2620 3440c0-13 7-20 20-20s20 7 20 20-7 20-20 20-20-7-20-20z"/><path d="m2670 3440c0-23 34-28 44-7 5 10 7 10 12 0 10-21 44-16 44 7 0 17-7 20-50 20s-50-3-50-20z"/><path d="m2780 3440c0-13 7-20 20-20s20 7 20 20-7 20-20 20-20-7-20-20z"/><path d="m2830 3439c0-16 5-20 23-17 13 2 21 10 19 18-2 11 1 11 11-2 19-24 47-23 47 2 0 17-7 20-50 20-44 0-50-3-50-21z"/><path d="m2940 3440c0-13 7-20 20-20s20 7 20 20-7 20-20 20-20-7-20-20z"/><path d="m2990 3440c0-13 7-20 20-20s20 7 20 20-7 20-20 20-20-7-20-20z"/><path d="m3574 3444c3-9 6-18 6-20s7-4 15-4 15 9 15 20c0 14-7 20-21 20-15 0-19-4-15-16z"/><path d="m3630 3439c0-14 5-19 17-17 24 4 26 38 2 38-13 0-19-7-19-21z"/><path d="m3680 3440c0-13 7-20 20-20s20 7 20 20-7 20-20 20-20-7-20-20z"/><path d="m1605 3440c3-5 8-10 11-10 2 0 4 5 4 10 0 6-5 10-11 10-5 0-7-4-4-10z"/><path d="m1660 3439c0-5 5-7 10-4 6 3 10 8 10 11 0 2-4 4-10 4-5 0-10-5-10-11z"/><path d="m1710 3440c0-5 5-10 10-10 6 0 10 5 10 10 0 6-4 10-10 10-5 0-10-4-10-10z"/><path d="m1756 3394c-6-15 2-24 21-24 7 0 13 8 13 18 0 21-27 26-34 6z"/><path d="m2023 3381c3-15 1-33-4-38-6-6-4-14 6-23 23-19 44 3 28 30-9 14-9 20-1 22 17 6 1 38-18 38-13 0-15-6-11-29z"/><path d="m2070 3390c0-13 7-20 20-20s20 7 20 20-7 20-20 20-20-7-20-20z"/><path d="m2127 3403c-20-19-4-31 43-31 36 0 50 4 50 14 0 20-27 29-45 14-10-9-15-9-15-1 0 12-23 15-33 4z"/><path d="m2570 3390c0-13 7-20 20-20s20 7 20 20-7 20-20 20-20-7-20-20z"/><path d="m2620 3390c0-13 7-20 20-20s20 7 20 20-7 20-20 20-20-7-20-20z"/><path d="m2670 3390c0-17 7-20 50-20s50 3 50 20c0 23-34 28-44 8-5-10-7-10-12 0-10 20-44 15-44-8z"/><path d="m2780 3390c0-13 7-20 20-20s20 7 20 20-7 20-20 20-20-7-20-20z"/><path d="m2830 3391c0-16 8-19 50-19 43-1 50 2 50 19 0 22-35 27-44 7-5-10-7-10-12 0-9 20-44 15-44-7z"/><path d="m2940 3390c0-13 7-20 20-20s20 7 20 20-7 20-20 20-20-7-20-20z"/><path d="m2990 3390c0-13 7-20 20-20s20 7 20 20-7 20-20 20-20-7-20-20z"/><path d="m3040 3390c0-13 7-20 18-20 24 0 32 8 25 26-8 22-43 17-43-6z"/><path d="m3100 3390c0-13 7-20 20-20s20 7 20 20-7 20-20 20-20-7-20-20z"/><path d="m3150 3390c0-13 7-20 20-20s20 7 20 20-7 20-20 20-20-7-20-20z"/><path d="m3360 3390c0-13 7-20 20-20s20 7 20 20-7 20-20 20-20-7-20-20z"/><path d="m3417 3404c-11-11 5-34 24-34 12 0 19 7 19 20 0 19-28 28-43 14z"/><path d="m3470 3390c0-13 7-20 20-20s20 7 20 20-7 20-20 20-20-7-20-20z"/><path d="m3520 3390c0-13 7-20 20-20s20 7 20 20-7 20-20 20-20-7-20-20z"/><path d="m3579 3407c-8-25-5-37 12-37 22 0 26 25 4 34-8 3-15 4-16 3z"/><path d="m3693 3403c-21-7-15-33 7-33 11 0 20 6 20 14 0 18-11 25-27 19z"/><path d="m1605 3390c-3-5-1-10 4-10 6 0 11 5 11 10 0 6-2 10-4 10-3 0-8-4-11-10z"/><path d="m1660 3390c0-5 5-10 11-10 5 0 7 5 4 10-3 6-8 10-11 10-2 0-4-4-4-10z"/><path d="m1710 3390c0-5 5-10 10-10 6 0 10 5 10 10 0 6-4 10-10 10-5 0-10-4-10-10z"/><path d="m1812 3389c2-6 8-10 13-10s11 4 13 10-4 11-13 11-15-5-13-11z"/><path d="m1865 3391c-6-11 9-23 19-14 9 9 7 23-3 23-6 0-12-4-16-9z"/><path d="m1922 3391c4-13 18-16 19-4 0 4-5 9-11 12-7 2-11-2-8-8z"/><path d="m1972 3389c2-6 8-10 13-10s11 4 13 10-4 11-13 11-15-5-13-11z"/><path d="m3630 3385c0-8 6-15 14-15s16 7 20 15c4 10-1 15-14 15-11 0-20-7-20-15z"/><path d="m2073 3344c-8-21 13-42 28-27 13 13 5 43-11 43-6 0-13-7-17-16z"/><path d="m2124 3345c-11-29 28-51 39-22 4 9 8 9 16-3 15-21 4-30-29-23-24 4-30 2-30-11 0-20 32-35 38-17 3 9 7 9 18 0 7-6 21-9 29-5 17 6 21 36 4 36-8 0-8 5 1 15 7 8 10 22 6 30-7 18-33 20-39 3-4-10-7-10-18 0-17 16-28 15-35-3z"/><path d="m2576 3353c-14-15-5-43 14-43 13 0 20 7 20 19 0 19-23 35-34 24z"/><path d="m2638 3353c-25-6-23-43 2-43 15 0 20 7 20 25 0 14-1 24-2 24-2-1-11-3-20-6z"/><path d="m2676 3353c-3-4-6-14-6-24 0-13 9-17 51-17 45 0 50 2 47 22-3 22-28 29-40 11-5-7-11-7-15 0-10 12-28 16-37 8z"/><path d="m2780 3333c0-16 6-23 20-23 15 0 20 7 20 24 0 19-5 24-20 23-14-1-20-8-20-24z"/><path d="m2836 3353c-3-4-6-14-6-24 0-13 9-17 51-17 45 0 50 2 47 22-3 22-28 29-40 11-5-7-11-7-15 0-10 12-28 16-37 8z"/><path d="m2940 3334c0-17 6-24 20-24 13 0 20 7 20 19 0 10-9 21-20 24-16 4-20 0-20-19z"/><path d="m3003 3353c-22-8-15-43 7-43 13 0 20 7 20 19 0 22-9 30-27 24z"/><path d="m3047 3353c-15-14-7-43 12-43 27 0 34 15 15 34-18 18-18 18-27 9z"/><path d="m3100 3334c0-17 6-24 20-24 13 0 20 7 20 19 0 10-9 21-20 24-16 4-20 0-20-19z"/><path d="m3157 3354c-16-16-7-44 14-44 15 0 20 5 17 22-3 22-19 33-31 22z"/><path d="m3373 3353c-21-8-15-43 7-43 15 0 20 7 20 25 0 25-4 28-27 18z"/><path d="m3430 3351c-23-9-18-36 8-39 16-3 22 2 22 17 0 24-10 31-30 22z"/><path d="m3475 3352c-14-14-3-42 15-42 14 0 20 7 20 23 0 21-21 33-35 19z"/><path d="m3520 3334c0-18 5-24 21-24 15 0 20 5 17 22-4 31-38 33-38 2z"/><path d="m1605 3341c-3-5-1-12 5-16 5-3 10 1 10 9 0 18-6 21-15 7z"/><path d="m1750 3335c0-8 2-15 4-15s11-3 20-6c12-4 16 0 16 15 0 14-6 21-20 21-11 0-20-7-20-15z"/><path d="m1816 3341c-4-5-2-12 3-15 5-4 12-2 15 3 4 5 2 12-3 15-5 4-12 2-15-3z"/><path d="m1867 3344c-8-8 1-24 14-24 5 0 9 7 9 15 0 15-12 20-23 9z"/><path d="m1920 3335c0-9 5-15 11-13s11 8 11 13-5 11-11 13-11-4-11-13z"/><path d="m1976 3341c-4-5-2-12 3-15 5-4 12-2 15 3 4 5 2 12-3 15-5 4-12 2-15-3z"/><path d="m3310 3330c0-13 7-20 20-20s20 7 20 20-7 20-20 20-20-7-20-20z"/><path d="m3573 3338c5-29 37-31 37-2 0 8-9 14-20 14s-19-6-17-12z"/><path d="m3630 3336c0-22 27-27 33-5 4 14 0 19-14 19-10 0-19-6-19-14z"/><path d="m3680 3335c0-8 9-15 20-15s20 7 20 15-9 15-20 15-20-7-20-15z"/><path d="m3897 3344c-9-10 2-24 19-24 8 0 14 7 14 15 0 15-21 21-33 9z"/><path d="m3950 3335c0-8 7-15 15-15s15 7 15 15-7 15-15 15-15-7-15-15z"/><path d="m4000 3335c0-10 7-15 18-13 21 4 19 22-2 26-10 2-16-3-16-13z"/><path d="m1660 3329c0-5 5-7 10-4 6 3 10 8 10 11 0 2-4 4-10 4-5 0-10-5-10-11z"/><path d="m1757 3280c3-11 12-20 19-20 8 0 14 9 14 20 0 13-7 20-19 20-14 0-18-5-14-20z"/><path d="m1815 3290c-4-6-3-16 3-22s12-6 17 2c4 6 3 16-3 22s-12 6-17-2z"/><path d="m1866 3292c-3-6-1-14 5-17 15-10 25 3 12 16-7 7-13 7-17 1z"/><path d="m1925 3289c-10-15 3-25 16-12 7 7 7 13 1 17-6 3-14 1-17-5z"/><path d="m1976 3293c-11-11-6-23 9-23 8 0 15 4 15 9 0 13-16 22-24 14z"/><path d="m2020 3279c0-14 5-19 17-17 26 5 29 38 4 38-15 0-21-6-21-21z"/><path d="m2070 3280c0-13 7-20 20-20s20 7 20 20-7 20-20 20-20-7-20-20z"/><path d="m2570 3280c0-13 7-20 20-20s20 7 20 20-7 20-20 20-20-7-20-20z"/><path d="m2620 3280c0-13 7-20 20-20s20 7 20 20-7 20-20 20-20-7-20-20z"/><path d="m2670 3280c0-17 7-20 50-20s50 3 50 20-7 20-50 20-50-3-50-20z"/><path d="m2780 3280c0-13 7-20 20-20s20 7 20 20-7 20-20 20-20-7-20-20z"/><path d="m2830 3280c0-25 28-26 46-2 13 16 14 16 8 0-5-14-1-18 20-18 19 0 26 5 26 20 0 17-7 20-50 20s-50-3-50-20z"/><path d="m2940 3280c0-13 7-20 20-20s20 7 20 20-7 20-20 20-20-7-20-20z"/><path d="m2990 3280c0-13 7-20 20-20s20 7 20 20-7 20-20 20-20-7-20-20z"/><path d="m3040 3280c0-13 7-20 19-20 10 0 21 9 24 20 4 16 0 20-19 20-17 0-24-6-24-20z"/><path d="m3100 3280c0-13 7-20 20-20s20 7 20 20-7 20-20 20-20-7-20-20z"/><path d="m3150 3280c0-13 7-20 20-20s20 7 20 20-7 20-20 20-20-7-20-20z"/><path d="m3310 3280c0-13 7-20 20-20s20 7 20 20-7 20-20 20-20-7-20-20z"/><path d="m3360 3280c0-13 7-20 20-20s20 7 20 20-7 20-20 20-20-7-20-20z"/><path d="m3414 3280c0-14 7-20 23-20s23 6 23 20-7 20-23 20-23-6-23-20z"/><path d="m3470 3280c0-13 7-20 20-20s20 7 20 20-7 20-20 20-20-7-20-20z"/><path d="m3520 3280c0-13 7-20 20-20s20 7 20 20-7 20-20 20-20-7-20-20z"/><path d="m3577 3280c3-11 12-20 19-20 8 0 14 9 14 20 0 13-7 20-19 20-14 0-18-5-14-20z"/><path d="m3630 3280c0-11 6-20 13-20 19 0 27 10 20 26-8 21-33 17-33-6z"/><path d="m3680 3280c0-13 7-20 20-20s20 7 20 20-7 20-20 20-20-7-20-20z"/><path d="m3896 3291c-7-11 18-33 27-24 4 3 7 12 7 20 0 15-26 18-34 4z"/><path d="m3952 3284c4-21 22-23 26-1 2 10-3 17-13 17s-15-6-13-16z"/><path d="m4005 3290c-11-17 5-32 21-19 7 6 11 15 8 20-7 12-21 11-29-1z"/><path d="m1605 3280c3-5 8-10 11-10 2 0 4 5 4 10 0 6-5 10-11 10-5 0-7-4-4-10z"/><path d="m1660 3279c0-5 5-7 10-4 6 3 10 8 10 11 0 2-4 4-10 4-5 0-10-5-10-11z"/><path d="m1710 3280c0-5 5-10 10-10 6 0 10 5 10 10 0 6-4 10-10 10-5 0-10-4-10-10z"/><path d="m2120 3230c0-15 7-20 26-20 14 0 23 4 19 9-3 5-1 13 5 16 6 4 9 1 8-7-2-7 7-14 20-16 17-3 22 1 22 17 0 18-6 21-50 21-43 0-50-3-50-20z"/><path d="m2570 3230c0-13 7-20 20-20s20 7 20 20-7 20-20 20-20-7-20-20z"/><path d="m2620 3230c0-13 7-20 20-20s20 7 20 20-7 20-20 20-20-7-20-20z"/><path d="m2670 3230c0-15 9-18 50-18s50 3 50 18-9 18-50 18-50-3-50-18z"/><path d="m2780 3230c0-13 7-20 20-20s20 7 20 20-7 20-20 20-20-7-20-20z"/><path d="m2830 3230c0-15 9-18 50-18s50 3 50 18-9 18-50 18-50-3-50-18z"/><path d="m2940 3230c0-13 7-20 20-20s20 7 20 20-7 20-20 20-20-7-20-20z"/><path d="m2990 3230c0-13 7-20 20-20s20 7 20 20-7 20-20 20-20-7-20-20z"/><path d="m3040 3230c0-23 35-28 43-6 7 18-1 26-25 26-11 0-18-7-18-20z"/><path d="m3100 3230c0-13 7-20 20-20s20 7 20 20-7 20-20 20-20-7-20-20z"/><path d="m3150 3230c0-13 7-20 20-20s20 7 20 20-7 20-20 20-20-7-20-20z"/><path d="m3259 3248c-9-30-5-38 17-38 17 0 24 6 24 20 0 13-7 20-20 20-11 0-20-1-21-2z"/><path d="m3310 3230c0-13 7-20 20-20s20 7 20 20-7 20-20 20-20-7-20-20z"/><path d="m3360 3230c0-13 7-20 20-20s20 7 20 20-7 20-20 20-20-7-20-20z"/><path d="m3419 3248c-9-30-5-38 17-38 17 0 24 6 24 20 0 13-7 20-20 20-11 0-20-1-21-2z"/><path d="m3470 3230c0-13 7-20 20-20s20 7 20 20-7 20-20 20-20-7-20-20z"/><path d="m3520 3230c0-13 7-20 20-20s20 7 20 20-7 20-20 20-20-7-20-20z"/><path d="m3593 3243c-18-7-16-33 2-33 8 0 15 9 15 20s-1 20-2 19c-2 0-9-3-15-6z"/><path d="m3637 3243c-13-12-7-33 8-33 8 0 15 9 15 20 0 20-11 26-23 13z"/><path d="m3687 3235c-6-13 1-25 14-25 14 0 18 28 4 34-7 2-16-1-18-9z"/><path d="m3746 3243c-12-12-6-33 9-33 8 0 15 6 15 14 0 17-14 28-24 19z"/><path d="m1602 3229c2-6 8-10 13-10s11 4 13 10-4 11-13 11-15-5-13-11z"/><path d="m1655 3231c-6-11 9-23 19-14 9 9 7 23-3 23-6 0-12-4-16-9z"/><path d="m1710 3230c0-5 5-10 10-10 6 0 10 5 10 10 0 6-4 10-10 10-5 0-10-4-10-10z"/><path d="m1760 3225c0-8 5-15 10-15 6 0 10 7 10 15s-4 15-10 15c-5 0-10-7-10-15z"/><path d="m1812 3229c2-6 8-10 13-10s11 4 13 10-4 11-13 11-15-5-13-11z"/><path d="m1866 3225c4-8 10-12 15-9 14 8 10 24-6 24-9 0-12-6-9-15z"/><path d="m1920 3230c0-5 5-10 10-10 6 0 10 5 10 10 0 6-4 10-10 10-5 0-10-4-10-10z"/><path d="m2030 3230c0-5 5-10 11-10 5 0 7 5 4 10-3 6-8 10-11 10-2 0-4-4-4-10z"/><path d="m2080 3230c0-5 5-10 10-10 6 0 10 5 10 10 0 6-4 10-10 10-5 0-10-4-10-10z"/><path d="m3847 3234c-8-8 1-24 14-24 5 0 9 7 9 15 0 15-12 20-23 9z"/><path d="m3902 3229c2-6 8-10 13-10s11 4 13 10-4 11-13 11-15-5-13-11z"/><path d="m3952 3229c2-6 8-10 13-10s11 4 13 10-4 11-13 11-15-5-13-11z"/><path d="m2565 3155c-3-25-5-178-4-340 3-290 3-295 23-296 21-1 21-1 1-7-18-6-21-16-21-80-1-73-1-73 25-72 14 1 40 2 57 1 27-1 31-4 27-25-5-22-1-25 31-28 29-2 34-6 25-18-8-11-12-12-16-2-8 20-43 15-43-7 0-26 17-36 35-21 12 10 18 10 30 0 20-16 32-5 38 35 2 17 5 2 6-32 1-56 3-63 21-63 17 0 19 6 18 58-1 32 2 55 7 52s9-16 9-30c1-25 24-35 38-16 4 6 13 5 23-4 20-16 32-5 38 35 2 17 5 2 6-32 1-55 3-63 21-63 17 0 19 6 17 55-3 53-2 55 23 54 17-1 19-3 8-6-14-3-18-15-18-54 0-42 3-49 20-49 13 0 20 7 20 20 0 11-7 20-16 20-8 0-12 5-9 10 4 6 11 8 16 5 5-4 10 9 10 27 1 27 3 29 6 8 7-35 19-46 37-31 12 10 13 18 5 32-7 15-6 19 6 19 9 0 15-9 15-23 0-28 7-37 25-30 17 6 18 85 1 95-8 6-8 8 1 8 8 0 12 36 12 126 0 69 2 129 5 132 6 5 10-208 6-310-1-29 3-48 9-48s11-5 11-11c0-5-4-7-10-4-6 4-10-5-10-19 0-19 5-26 20-26 17 0 19 6 17 55-2 30 0 55 4 55 12 0 4 31-10 39-10 6-9 10 3 14 23 9 20 26-6 37-18 7-9 9 37 9 33 0 55-3 49-7-7-4-12-26-12-49-1-46-1-46 68-45 16 1 19-1 8-4-26-8-24-49 2-51 16-1 20 4 20 28 0 16 3 29 8 29 4 0 6-25 5-55-3-49-1-55 17-55 15 0 20 7 20 26 0 17-4 23-12 18-10-6-9-3 0 8 8 9 13 25 12 35-4 32 0 57 7 49 4-3 8-34 8-69 2-55 5-62 24-65 16-3 21 2 21 17 0 13-7 21-17 21-17 1-17 1-1 11 25 14 24 146-1 152-14 4-14 5 2 6 15 1 17 11 16 75-1 60-4 76-18 79-14 4-14 5 2 6 15 1 17 13 17 106v105h25c23 0 24 2 15 21-11 20-12 20-25 2-13-16-14-9-15 60 0 76 0 77 25 77 27 0 30 6 15 30-8 13-11 12-24-5-15-20-15-20-13 3 1 16 8 22 24 22 27 0 29 9 8 36-14 19-14 19-15 0 0-38-15-4-16 38-1 38 1 43 17 39 12-3 21 1 25 11 8 20 2 27-23 30-11 2-19 13-21 29-2 19-9 27-23 27-17 0-24-16-20-42 0-5-4-8-9-8-6 0-10 11-10 25 0 37-37 35-43-2l-4-28-2 28c-1 20-6 27-20 27s-21-8-24-27l-4-28-2 28c-1 29-27 37-49 15-9-9-12-9-12 0 0 7-9 12-19 12-14 0-21-8-24-27l-4-28-2 28c-1 20-6 27-20 27s-21-8-24-27l-4-28-2 28c-2 37-41 40-41 2 0-14-5-25-10-25-6 0-9 3-9 8 4 26-3 42-20 42-14 0-21-8-24-27l-4-28-2 28c-1 20-6 27-20 27s-21-8-24-27l-4-28-2 28c-1 20-6 27-20 27s-21-8-24-27l-4-28-2 28c-1 20-6 27-21 27-12 0-20-7-20-17-1-17-1-17-14 0-20 26-44 21-49-10l-4-28-2 28c-1 20-6 27-20 27s-21-8-24-27l-4-28-2 28c-1 20-6 27-21 27-11 0-20-7-20-15s-4-15-10-15c-5 0-10 7-10 15s-9 15-19 15c-14 0-21-8-24-27l-4-28-2 28c-1 20-6 27-20 27s-21-8-24-27l-4-28-2 28c-1 19-6 27-20 27-15 0-20-10-26-45zm102-537c-3-8-6-5-6 6-1 11 2 17 5 13 3-3 4-12 1-19zm110 0c-3-8-6-5-6 6-1 11 2 17 5 13 3-3 4-12 1-19zm-152-48c3-5 1-10-4-10-6 0-11 5-11 10 0 6 2 10 4 10 3 0 8-4 11-10zm365 0c0-5-5-10-11-10-5 0-7 5-4 10 3 6 8 10 11 10 2 0 4-4 4-10zm320 0c0-5-5-10-11-10-5 0-7 5-4 10 3 6 8 10 11 10 2 0 4-4 4-10zm105 0c3-5 1-10-4-10-6 0-11 5-11 10 0 6 2 10 4 10 3 0 8-4 11-10zm-312-7c-7-2-19-2-25 0-7 3-2 5 12 5s19-2 13-5zm103-2c-3-5-15-7-26-4-28 7-25 13 6 13 14 0 23-4 20-9zm208-36c4-12-4-15-47-13-50 1-50 2-9 5 23 2 42 8 42 14 0 14 7 11 14-6zm-797-17c-3-8-6-5-6 6-1 11 2 17 5 13 3-3 4-12 1-19zm370 0c-3-8-6-5-6 6-1 11 2 17 5 13 3-3 4-12 1-19zm218 12c3-5 1-10-4-10-6 0-11 5-11 10 0 6 2 10 4 10 3 0 8-4 11-10zm102-12c-3-8-6-5-6 6-1 11 2 17 5 13 3-3 4-12 1-19zm-574 5c-7-2-19-2-25 0-7 3-2 5 12 5s19-2 13-5zm160 0c-7-2-19-2-25 0-7 3-2 5 12 5s19-2 13-5zm140 0c-7-2-19-2-25 0-7 3-2 5 12 5s19-2 13-5zm234 1c-3-3-12-4-19-1-8 3-5 6 6 6 11 1 17-2 13-5zm-600-51c-3-10-5-4-5 12 0 17 2 24 5 18 2-7 2-21 0-30zm110 0c-3-10-5-4-5 12 0 17 2 24 5 18 2-7 2-21 0-30zm50 0c-3-10-5-4-5 12 0 17 2 24 5 18 2-7 2-21 0-30zm110 0c-3-10-5-4-5 12 0 17 2 24 5 18 2-7 2-21 0-30zm-320-5c-3-8-6-5-6 6-1 11 2 17 5 13 3-3 4-12 1-19zm370 0c-3-8-6-5-6 6-1 11 2 17 5 13 3-3 4-12 1-19zm320 0c-3-8-6-5-6 6-1 11 2 17 5 13 3-3 4-12 1-19zm100 0c-3-8-6-5-6 6-1 11 2 17 5 13 3-3 4-12 1-19zm-210-10c-3-8-6-5-6 6-1 11 2 17 5 13 3-3 4-12 1-19zm-572-38c3-5 1-10-4-10-6 0-11 5-11 10 0 6 2 10 4 10 3 0 8-4 11-10zm365 0c0-5-5-10-11-10-5 0-7 5-4 10 3 6 8 10 11 10 2 0 4-4 4-10zm320 0c0-5-5-10-11-10-5 0-7 5-4 10 3 6 8 10 11 10 2 0 4-4 4-10zm105 0c3-5 1-10-4-10-6 0-11 5-11 10 0 6 2 10 4 10 3 0 8-4 11-10zm-312-7c-7-2-19-2-25 0-7 3-2 5 12 5s19-2 13-5zm311-38c3-8 1-15-4-15-6 0-10 7-10 15s2 15 4 15 6-7 10-15zm-104-17c0-18-2-20-9-8-6 8-7 18-5 22 9 14 14 9 14-14zm-520 8c0-3-4-8-10-11-5-3-10-1-10 4 0 6 5 11 10 11 6 0 10-2 10-4zm50 0c0-11-19-15-25-6-3 5 1 10 9 10 9 0 16-2 16-4zm43-3c-7-2-19-2-25 0-7 3-2 5 12 5s19-2 13-5zm67 3c0-3-4-8-10-11-5-3-10-1-10 4 0 6 5 11 10 11 6 0 10-2 10-4zm110 0c0-2-7-6-15-10-8-3-15-1-15 4 0 6 7 10 15 10s15-2 15-4zm37-2c-3-3-12-4-19-1-8 3-5 6 6 6 11 1 17-2 13-5zm260-16c-3-8-6-5-6 6-1 11 2 17 5 13 3-3 4-12 1-19zm-463-43c-5-12-10-13-20-4-19 15-18 19 6 19 13 0 18-5 14-15z"/><path d="m3470 3177c0-16 6-23 20-24 15-1 20 4 20 23 0 17-5 24-20 24-14 0-20-7-20-23z"/><path d="m3520 3182c0-24 8-32 26-25 22 8 17 43-6 43-13 0-20-7-20-18z"/><path d="m1600 3175c0-8 7-15 15-15s15 7 15 15-7 15-15 15-15-7-15-15z"/><path d="m1656 3175c4-8 10-15 15-15s9 7 9 15-7 15-15 15c-9 0-12-6-9-15z"/><path d="m1710 3175c0-8 5-15 10-15 6 0 10 7 10 15s-4 15-10 15c-5 0-10-7-10-15z"/><path d="m1760 3175c0-8 4-15 9-15s11 7 15 15c3 9 0 15-9 15-8 0-15-7-15-15z"/><path d="m1810 3175c0-8 7-15 15-15s15 7 15 15-7 15-15 15-15-7-15-15z"/><path d="m1867 3184c-8-8 1-24 14-24 5 0 9 7 9 15 0 15-12 20-23 9z"/><path d="m1925 3180c-3-5-1-10 4-10 6 0 11 5 11 10 0 6-2 10-4 10-3 0-8-4-11-10z"/><path d="m3580 3175c0-8 7-15 15-15s15 7 15 15-7 15-15 15-15-7-15-15z"/><path d="m3630 3175c0-8 7-15 15-15s15 7 15 15-7 15-15 15-15-7-15-15z"/><path d="m3687 3184c-9-10 2-24 18-24 9 0 12 6 9 15-6 16-17 19-27 9z"/><path d="m3740 3175c0-8 7-15 15-15s15 7 15 15-7 15-15 15-15-7-15-15z"/><path d="m3900 3175c0-9 5-15 11-13s11 8 11 13-5 11-11 13-11-4-11-13z"/><path d="m3531 3140c-17-10-7-40 14-40 8 0 15 9 15 19 0 24-12 32-29 21z"/><path d="m3583 3143c-18-6-16-32 2-39 8-4 22-1 30 6 10 9 15 9 15 1 0-17 30-13 37 5 8 20-17 36-34 22-9-7-17-7-25-1-7 6-19 8-25 6z"/><path d="m1600 3125c0-8 7-15 15-15s15 7 15 15-7 15-15 15-15-7-15-15z"/><path d="m1657 3134c-8-8 1-24 14-24 5 0 9 7 9 15 0 15-12 20-23 9z"/><path d="m1710 3125c0-8 5-15 10-15 6 0 10 7 10 15s-4 15-10 15c-5 0-10-7-10-15z"/><path d="m1760 3125c0-8 7-15 15-15 9 0 12 6 9 15-4 8-10 15-15 15s-9-7-9-15z"/><path d="m1810 3125c0-8 7-15 15-15s15 7 15 15-7 15-15 15-15-7-15-15z"/><path d="m1866 3125c-3-9 0-15 9-15 8 0 15 7 15 15s-4 15-9 15-11-7-15-15z"/><path d="m3682 3123c2-10 10-18 18-18s16 8 18 18c2 12-3 17-18 17s-20-5-18-17z"/><path d="m3740 3120c6-11 15-20 20-20 6 0 10 9 10 20 0 13-7 20-20 20-18 0-19-3-10-20z"/><path d="m3790 3120c0-21 8-25 25-12 18 13 15 32-5 32-13 0-20-7-20-20z"/><path d="m3840 3125c0-8 9-15 20-15s20 7 20 15-9 15-20 15-20-7-20-15z"/><path d="m3890 3125c0-8 2-15 4-15s11-3 20-6c12-4 16 0 16 15 0 14-6 21-20 21-11 0-20-7-20-15z"/><path d="m1925 3120c3-5 8-10 11-10 2 0 4 5 4 10 0 6-5 10-11 10-5 0-7-4-4-10z"/><path d="m2030 3119c0-5 5-7 10-4 6 3 10 8 10 11 0 2-4 4-10 4-5 0-10-5-10-11z"/><path d="m2080 3120c0-5 5-10 10-10 6 0 10 5 10 10 0 6-4 10-10 10-5 0-10-4-10-10z"/><path d="m2135 3120c3-5 8-10 11-10 2 0 4 5 4 10 0 6-5 10-11 10-5 0-7-4-4-10z"/><path d="m2190 3119c0-5 5-7 10-4 6 3 10 8 10 11 0 2-4 4-10 4-5 0-10-5-10-11z"/><path d="m3474 3079c-10-17 13-36 27-22 12 12 4 33-11 33-5 0-12-5-16-11z"/><path d="m3524 3079c-10-17 13-36 27-22 12 12 4 33-11 33-5 0-12-5-16-11z"/><path d="m3580 3070c0-13 5-20 13-17 6 2 12 10 12 17s-6 15-12 18c-8 2-13-5-13-18z"/><path d="m3635 3080c-7-12 2-30 16-30 5 0 9 9 9 20 0 21-15 27-25 10z"/><path d="m3687 3084c-13-13-7-24 14-24 11 0 19 5 17 12-5 14-22 21-31 12z"/><path d="m3740 3070c0-9 7-17 15-17s15 8 15 17-7 17-15 17-15-8-15-17z"/><path d="m3792 3072c5-23 28-27 28-4 0 10-7 19-15 19-9 0-15-7-13-15z"/><path d="m1600 3070c0-5 7-10 15-10s15 5 15 10c0 6-7 10-15 10s-15-4-15-10z"/><path d="m1650 3070c0-5 7-10 15-10s15 5 15 10c0 6-7 10-15 10s-15-4-15-10z"/><path d="m1710 3070c0-5 5-10 10-10 6 0 10 5 10 10 0 6-4 10-10 10-5 0-10-4-10-10z"/><path d="m1760 3070c0-5 7-10 15-10s15 5 15 10c0 6-7 10-15 10s-15-4-15-10z"/><path d="m1810 3070c0-5 7-10 15-10s15 5 15 10c0 6-7 10-15 10s-15-4-15-10z"/><path d="m1865 3070c3-5 10-10 16-10 5 0 9 5 9 10 0 6-7 10-16 10-8 0-12-4-9-10z"/><path d="m1920 3070c0-5 7-10 15-10s15 5 15 10c0 6-7 10-15 10s-15-4-15-10z"/><path d="m1970 3070c0-5 7-10 15-10s15 5 15 10c0 6-7 10-15 10s-15-4-15-10z"/><path d="m2020 3070c0-5 7-10 15-10s15 5 15 10c0 6-7 10-15 10s-15-4-15-10z"/><path d="m2080 3070c0-5 5-10 10-10 6 0 10 5 10 10 0 6-4 10-10 10-5 0-10-4-10-10z"/><path d="m2135 3070c-3-5-1-10 4-10 6 0 11 5 11 10 0 6-2 10-4 10-3 0-8-4-11-10z"/><path d="m2190 3070c0-5 5-10 10-10 6 0 10 5 10 10 0 6-4 10-10 10-5 0-10-4-10-10z"/><path d="m3843 3068c2-7 10-13 17-13s15 6 18 13c2 7-5 12-18 12s-20-5-17-12z"/><path d="m3582 3015c-11-23-10-25 14-25 22 0 24 2 13 23-6 12-13 23-14 25-1 1-7-9-13-23z"/><path d="m3635 3030c-10-17 12-37 25-24 8 8 6 15-4 23-10 9-16 9-21 1z"/><path d="m1600 3015c0-9 6-12 15-9 8 4 15 10 15 15s-7 9-15 9-15-7-15-15z"/><path d="m1655 3020c-3-5 1-10 9-10 9 0 16 5 16 10 0 6-4 10-9 10-6 0-13-4-16-10z"/><path d="m1710 3020c0-5 5-10 10-10 6 0 10 5 10 10 0 6-4 10-10 10-5 0-10-4-10-10z"/><path d="m1760 3015c0-9 6-12 15-9 8 4 12 10 9 15-8 14-24 10-24-6z"/><path d="m1810 3020c0-5 7-10 15-10s15 5 15 10c0 6-7 10-15 10s-15-4-15-10z"/><path d="m1865 3020c3-5 10-10 16-10 5 0 9 5 9 10 0 6-7 10-16 10-8 0-12-4-9-10z"/><path d="m1920 3015c0-9 5-15 11-13s11 8 11 13-5 11-11 13-11-4-11-13z"/><path d="m1972 3019c2-6 8-10 13-10s11 4 13 10-4 11-13 11-15-5-13-11z"/><path d="m2022 3018c6-18 28-21 28-4 0 9-7 16-16 16s-14-5-12-12z"/><path d="m2080 3015c0-8 5-15 10-15 6 0 10 7 10 15s-4 15-10 15c-5 0-10-7-10-15z"/><path d="m3526 3014c-9-23-8-24 14-24 11 0 20 2 20 4 0 12-13 36-20 36-4 0-11-7-14-16z"/><path d="m3686 3015c4-9 11-14 16-13 15 5 11 23-6 26-11 2-14-2-10-13z"/><path d="m3740 3015c0-8 7-15 15-15s15 7 15 15-7 15-15 15-15-7-15-15z"/><path d="m3790 3015c0-8 7-15 15-15s15 7 15 15-7 15-15 15-15-7-15-15z"/><path d="m3840 3015c0-8 7-15 15-15s15 7 15 15-7 15-15 15-15-7-15-15z"/><path d="m3634 2975c-9-23 10-40 25-22 9 11 8 17-4 27s-16 9-21-5z"/><path d="m1600 2965c0-8 7-15 15-15s15 7 15 15-7 15-15 15-15-7-15-15z"/><path d="m1656 2965c-3-9 0-15 9-15 8 0 15 7 15 15s-4 15-9 15-11-7-15-15z"/><path d="m1710 2965c0-8 5-15 10-15 6 0 10 7 10 15s-4 15-10 15c-5 0-10-7-10-15z"/><path d="m1760 2965c0-8 7-15 15-15 9 0 12 6 9 15-4 8-10 15-15 15s-9-7-9-15z"/><path d="m1810 2965c0-8 7-15 15-15s15 7 15 15-7 15-15 15-15-7-15-15z"/><path d="m1870 2965c0-8 5-15 10-15 6 0 10 7 10 15s-4 15-10 15c-5 0-10-7-10-15z"/><path d="m1920 2965c0-9 5-15 11-13s11 8 11 13-5 11-11 13-11-4-11-13z"/><path d="m1970 2965c0-8 7-15 15-15s15 7 15 15-7 15-15 15-15-7-15-15z"/><path d="m2027 2974c-8-8 1-24 14-24 5 0 9 7 9 15 0 15-12 20-23 9z"/><path d="m2077 2974c-8-8 1-24 14-24 5 0 9 7 9 15 0 15-12 20-23 9z"/><path d="m3527 2960c-4-15 0-20 14-20 21 0 22 1 13 24-8 22-21 20-27-4z"/><path d="m3580 2960c-9-18-8-20 15-20s24 2 15 20c-6 11-13 20-15 20s-9-9-15-20z"/><path d="m3687 2973c-12-11-8-23 8-23 8 0 15 7 15 15 0 16-12 20-23 8z"/><path d="m3740 2965c0-8 7-15 15-15s15 7 15 15-7 15-15 15-15-7-15-15z"/><path d="m3790 2965c0-8 7-15 15-15s15 7 15 15-7 15-15 15-15-7-15-15z"/><path d="m1606 2923c-11-11-6-23 9-23 8 0 15 4 15 9 0 13-16 22-24 14z"/><path d="m1710 2915c0-8 5-15 10-15 6 0 10 7 10 15s-4 15-10 15c-5 0-10-7-10-15z"/><path d="m1926 2923c-11-11-6-23 9-23 8 0 15 4 15 9 0 13-16 22-24 14z"/><path d="m1976 2923c-11-11-6-23 9-23 8 0 15 4 15 9 0 13-16 22-24 14z"/><path d="m2026 2923c-11-11-6-23 9-23 8 0 15 4 15 9 0 13-16 22-24 14z"/><path d="m2080 2915c0-8 5-15 10-15 6 0 10 7 10 15s-4 15-10 15c-5 0-10-7-10-15z"/><path d="m3476 2915c-8-22-3-28 19-23 14 3 14 5 2 22-13 18-14 18-21 1z"/><path d="m3531 2911c-10-18-9-21 9-21 22 0 25 7 11 29-7 11-11 9-20-8z"/><path d="m3580 2911c-10-19-8-21 16-21s25 2 13 18c-7 9-14 19-15 20-1 2-7-6-14-17z"/><path d="m3635 2920c-11-17 5-32 21-19 7 6 11 15 8 20-7 12-21 11-29-1z"/><path d="m3684 2919c-10-17 13-36 27-22 12 12 4 33-11 33-5 0-12-5-16-11z"/><path d="m3734 2919c-10-17 13-36 27-22 12 12 4 33-11 33-5 0-12-5-16-11z"/><path d="m1655 2910c3-5 10-10 16-10 5 0 9 5 9 10 0 6-7 10-16 10-8 0-12-4-9-10z"/><path d="m1760 2910c0-5 4-10 9-10 6 0 13 5 16 10 3 6-1 10-9 10-9 0-16-4-16-10z"/><path d="m1810 2910c0-5 7-10 15-10s15 5 15 10c0 6-7 10-15 10s-15-4-15-10z"/><path d="m1865 2910c-3-5 1-10 9-10 9 0 16 5 16 10 0 6-4 10-9 10-6 0-13-4-16-10z"/><path d="m3532 2863c-15-28-15-33 2-33 20 0 25 11 16 35-7 19-7 19-18-2z"/><path d="m3588 2868c-10-25-9-32 7-34s19 13 6 34c-7 11-9 11-13 0z"/><path d="m3635 2870c-10-17 12-37 25-24 8 8 6 15-4 23-10 9-16 9-21 1z"/><path d="m3684 2869c-10-17 13-36 27-22 12 12 4 33-11 33-5 0-12-5-16-11z"/><path d="m3735 2870c-4-6-1-17 5-25 9-11 9-19 1-28-15-19 7-41 26-25 10 8 11 14 2 25-9 10-9 17-1 25s9 15 1 25c-14 16-26 17-34 3z"/><path d="m1600 2855c0-9 6-12 15-9 8 4 15 10 15 15s-7 9-15 9-15-7-15-15z"/><path d="m1652 2858c6-18 28-21 28-4 0 9-7 16-16 16s-14-5-12-12z"/><path d="m1710 2855c0-8 5-15 10-15 6 0 10 7 10 15s-4 15-10 15c-5 0-10-7-10-15z"/><path d="m1760 2860c0-5 7-10 15-10s15 5 15 10c0 6-7 10-15 10s-15-4-15-10z"/><path d="m1810 2860c0-5 7-10 15-10s15 5 15 10c0 6-7 10-15 10s-15-4-15-10z"/><path d="m1862 2859c2-6 8-10 13-10s11 4 13 10-4 11-13 11-15-5-13-11z"/><path d="m1920 2855c0-9 5-15 11-13s11 8 11 13-5 11-11 13-11-4-11-13z"/><path d="m1972 2859c2-6 8-10 13-10s11 4 13 10-4 11-13 11-15-5-13-11z"/><path d="m2022 2858c6-18 28-21 28-4 0 9-7 16-16 16s-14-5-12-12z"/><path d="m2080 2855c0-8 5-15 10-15 6 0 10 7 10 15s-4 15-10 15c-5 0-10-7-10-15z"/><path d="m3477 2863c-14-13-7-29 13-29 11 0 20 1 20 2s-3 9-6 18c-7 17-16 20-27 9z"/><path d="m3634 2815c-9-23 10-40 25-22 9 11 8 17-4 27s-16 9-21-5z"/><path d="m3683 2814c-8-21 13-42 28-27 13 13 5 43-11 43-6 0-13-7-17-16z"/><path d="m1600 2805c0-8 7-15 15-15s15 7 15 15-7 15-15 15-15-7-15-15z"/><path d="m1660 2805c0-8 5-15 10-15 6 0 10 7 10 15s-4 15-10 15c-5 0-10-7-10-15z"/><path d="m1710 2805c0-8 5-15 10-15 6 0 10 7 10 15s-4 15-10 15c-5 0-10-7-10-15z"/><path d="m1760 2805c0-9 5-15 11-13s11 8 11 13-5 11-11 13-11-4-11-13z"/><path d="m1810 2805c0-8 7-15 15-15s15 7 15 15-7 15-15 15-15-7-15-15z"/><path d="m1867 2814c-8-8 1-24 14-24 5 0 9 7 9 15 0 15-12 20-23 9z"/><path d="m1920 2805c0-9 5-15 11-13s11 8 11 13-5 11-11 13-11-4-11-13z"/><path d="m1970 2805c0-8 7-15 15-15s15 7 15 15-7 15-15 15-15-7-15-15z"/><path d="m2027 2814c-8-8 1-24 14-24 5 0 9 7 9 15 0 15-12 20-23 9z"/><path d="m2080 2805c0-8 5-15 10-15 6 0 10 7 10 15s-4 15-10 15c-5 0-10-7-10-15z"/><path d="m3526 2804c-9-23-8-24 14-24 11 0 20 2 20 4 0 12-13 36-20 36-4 0-11-7-14-16z"/><path d="m3580 2800c-9-17-8-20 10-20 11 0 20 6 20 14 0 24-18 28-30 6z"/><path d="m1606 2763c-11-11-6-23 9-23 8 0 15 4 15 9 0 13-16 22-24 14z"/><path d="m1710 2755c0-8 5-15 10-15 6 0 10 7 10 15s-4 15-10 15c-5 0-10-7-10-15z"/><path d="m1760 2755c0-8 7-15 15-15s15 4 15 9-7 11-15 15c-9 3-15 0-15-9z"/><path d="m1876 2761c-4-7-5-15-2-18 9-9 19 4 14 18-4 11-6 11-12 0z"/><path d="m1920 2755c0-9 5-15 11-13s11 8 11 13-5 11-11 13-11-4-11-13z"/><path d="m1976 2763c-11-11-6-23 9-23 8 0 15 4 15 9 0 13-16 22-24 14z"/><path d="m2027 2763c-12-11-8-23 8-23 8 0 15 7 15 15 0 16-12 20-23 8z"/><path d="m2080 2755c0-9 5-15 11-13s11 8 11 13-5 11-11 13-11-4-11-13z"/><path d="m3476 2755c-8-22-3-28 19-23 14 3 14 5 2 22-13 18-14 18-21 1z"/><path d="m3587 2763c-12-12-7-33 8-33 17 0 19 9 7 28-5 7-11 9-15 5z"/><path d="m3635 2760c-11-17 5-32 21-19 7 6 11 15 8 20-7 12-21 11-29-1z"/><path d="m3684 2759c-10-17 13-36 27-22 12 12 4 33-11 33-5 0-12-5-16-11z"/><path d="m3736 2761c-3-5 1-14 8-20 16-13 32 2 21 19-8 12-22 13-29 1z"/><path d="m1650 2750c0-5 7-10 15-10s15 5 15 10c0 6-7 10-15 10s-15-4-15-10z"/><path d="m1810 2750c0-5 7-10 15-10s15 5 15 10c0 6-7 10-15 10s-15-4-15-10z"/><path d="m3526 2745c-4-10 1-15 14-15s18 5 14 15c-4 8-10 15-14 15s-10-7-14-15z"/><path d="m3476 2705c-8-22-3-28 19-23 14 3 14 5 2 22-13 18-14 18-21 1z"/><path d="m3586 2705c-9-23-8-25 9-25s19 9 6 28c-7 11-10 10-15-3z"/><path d="m3635 2710c-4-6-3-16 3-22s12-6 17 2c4 6 3 16-3 22s-12 6-17-2z"/><path d="m3684 2709c-10-17 13-36 27-22 12 12 4 33-11 33-5 0-12-5-16-11z"/><path d="m3734 2709c-10-17 13-36 27-22 12 12 4 33-11 33-5 0-12-5-16-11z"/><path d="m3795 2710c-4-6-3-16 3-22s12-6 17 2c4 6 3 16-3 22s-12 6-17-2z"/><path d="m1600 2695c0-9 6-12 15-9 8 4 15 10 15 15s-7 9-15 9-15-7-15-15z"/><path d="m1656 2695c4-8 10-15 15-15s9 7 9 15-7 15-15 15c-9 0-12-6-9-15z"/><path d="m1710 2700c0-5 5-10 10-10 6 0 10 5 10 10 0 6-4 10-10 10-5 0-10-4-10-10z"/><path d="m1760 2695c0-9 6-12 15-9 8 4 15 10 15 15s-7 9-15 9-15-7-15-15z"/><path d="m1812 2699c2-6 8-10 13-10s11 4 13 10-4 11-13 11-15-5-13-11z"/><path d="m1866 2695c4-8 10-12 15-9 14 8 10 24-6 24-9 0-12-6-9-15z"/><path d="m1922 2699c2-6 8-10 13-10s11 4 13 10-4 11-13 11-15-5-13-11z"/><path d="m1972 2699c2-6 8-10 13-10s11 4 13 10-4 11-13 11-15-5-13-11z"/><path d="m2020 2700c0-5 7-10 15-10s15 5 15 10c0 6-7 10-15 10s-15-4-15-10z"/><path d="m2080 2700c0-5 5-10 10-10 6 0 10 5 10 10 0 6-4 10-10 10-5 0-10-4-10-10z"/><path d="m3526 2695c-4-10 1-15 14-15s18 5 14 15c-4 8-10 15-14 15s-10-7-14-15z"/><path d="m3635 2660c-7-12 2-30 16-30 12 0 12 27 0 35-5 3-12 1-16-5z"/><path d="m1600 2650c0-5 7-10 16-10 8 0 12 5 9 10-3 6-10 10-16 10-5 0-9-4-9-10z"/><path d="m1660 2650c0-5 5-10 10-10 6 0 10 5 10 10 0 6-4 10-10 10-5 0-10-4-10-10z"/><path d="m1710 2650c0-5 5-10 10-10 6 0 10 5 10 10 0 6-4 10-10 10-5 0-10-4-10-10z"/><path d="m1760 2651c0-6 5-13 10-16 6-3 10 1 10 9 0 9-4 16-10 16-5 0-10-4-10-9z"/><path d="m1820 2650c0-5 5-10 10-10 6 0 10 5 10 10 0 6-4 10-10 10-5 0-10-4-10-10z"/><path d="m1870 2645c0-8 5-15 10-15 6 0 10 7 10 15s-4 15-10 15c-5 0-10-7-10-15z"/><path d="m1920 2645c0-9 5-15 11-13s11 8 11 13-5 11-11 13-11-4-11-13z"/><path d="m1970 2644c0-17 22-14 28 4 2 7-3 12-12 12s-16-7-16-16z"/><path d="m2022 2648c6-18 28-21 28-4 0 9-7 16-16 16s-14-5-12-12z"/><path d="m2075 2651c-7-12 12-24 25-16 11 7 4 25-10 25-5 0-11-4-15-9z"/><path d="m3476 2644c-8-21-8-21 9-21 8 0 15 9 15 19 0 22-16 24-24 2z"/><path d="m3530 2650c0-5-1-13-2-17-2-3 5-7 15-9 19-3 19-2 11 20-7 18-24 22-24 6z"/><path d="m3585 2650c-4-6-3-16 3-22s12-6 17 2c4 6 3 16-3 22s-12 6-17-2z"/><path d="m3690 2645c0-8 5-15 10-15 6 0 10 7 10 15s-4 15-10 15c-5 0-10-7-10-15z"/><path d="m3740 2645c0-8 4-15 9-15s11 7 15 15c3 9 0 15-9 15-8 0-15-7-15-15z"/><path d="m3790 2645c0-8 7-15 15-15s15 7 15 15-7 15-15 15-15-7-15-15z"/><path d="m1605 2599c-10-15 3-25 16-12 7 7 7 13 1 17-6 3-14 1-17-5z"/><path d="m1710 2595c0-8 5-15 10-15 6 0 10 7 10 15s-4 15-10 15c-5 0-10-7-10-15z"/><path d="m1816 2601c-4-5-2-12 3-15 5-4 12-2 15 3 4 5 2 12-3 15-5 4-12 2-15-3z"/><path d="m1870 2596c0-9 5-16 10-16 6 0 10 4 10 9 0 6-4 13-10 16-5 3-10-1-10-9z"/><path d="m1926 2601c-4-7-5-15-2-18 9-9 19 4 14 18-4 11-6 11-12 0z"/><path d="m3476 2595c-8-22-3-28 19-23 14 3 14 5 2 22-13 18-14 18-21 1z"/><path d="m3531 2591c-10-18-9-21 9-21 22 0 25 7 11 29-7 11-11 9-20-8z"/><path d="m3587 2603c-12-12-7-33 8-33 17 0 19 9 7 28-5 7-11 9-15 5z"/><path d="m3635 2600c-11-17 5-32 21-19 7 6 11 15 8 20-7 12-21 11-29-1z"/><path d="m3690 2595c0-8 5-15 10-15 6 0 10 7 10 15s-4 15-10 15c-5 0-10-7-10-15z"/><path d="m3740 2595c0-8 7-15 15-15 9 0 12 6 9 15-4 8-10 15-15 15s-9-7-9-15z"/><path d="m3790 2595c0-8 7-15 15-15s15 7 15 15-7 15-15 15-15-7-15-15z"/><path d="m3847 2604c-8-8 1-24 14-24 5 0 9 7 9 15 0 15-12 20-23 9z"/><path d="m1660 2590c0-5 5-10 10-10 6 0 10 5 10 10 0 6-4 10-10 10-5 0-10-4-10-10z"/><path d="m1760 2590c0-5 5-10 10-10 6 0 10 5 10 10 0 6-4 10-10 10-5 0-10-4-10-10z"/><path d="m1975 2590c4-6 11-8 16-5 14 9 11 15-7 15-8 0-12-5-9-10z"/><path d="m2025 2590c3-5 10-10 16-10 5 0 9 5 9 10 0 6-7 10-16 10-8 0-12-4-9-10z"/><path d="m2080 2590c0-5 5-10 10-10 6 0 10 5 10 10 0 6-4 10-10 10-5 0-10-4-10-10z"/><path d="m3477 2540c-4-15 0-20 14-20 17 0 18 3 9 20-6 11-12 20-14 20s-6-9-9-20z"/><path d="m3586 2545c-9-23-8-25 9-25s19 9 6 28c-7 11-10 10-15-3z"/><path d="m3635 2550c-4-6-3-16 3-22s12-6 17 2c4 6 3 16-3 22s-12 6-17-2z"/><path d="m1600 2540c0-5 7-10 16-10 8 0 12 5 9 10-3 6-10 10-16 10-5 0-9-4-9-10z"/><path d="m1660 2540c0-5 5-10 10-10 6 0 10 5 10 10 0 6-4 10-10 10-5 0-10-4-10-10z"/><path d="m1710 2540c0-5 5-10 10-10 6 0 10 5 10 10 0 6-4 10-10 10-5 0-10-4-10-10z"/><path d="m1760 2540c0-5 5-10 10-10 6 0 10 5 10 10 0 6-4 10-10 10-5 0-10-4-10-10z"/><path d="m1815 2540c-3-5 1-10 9-10 9 0 16 5 16 10 0 6-4 10-9 10-6 0-13-4-16-10z"/><path d="m1870 2540c0-5 5-10 10-10 6 0 10 5 10 10 0 6-4 10-10 10-5 0-10-4-10-10z"/><path d="m1920 2540c0-5 5-10 10-10 6 0 10 5 10 10 0 6-4 10-10 10-5 0-10-4-10-10z"/><path d="m1970 2540c0-5 7-10 15-10s15 5 15 10c0 6-7 10-15 10s-15-4-15-10z"/><path d="m2030 2540c0-5 5-10 10-10 6 0 10 5 10 10 0 6-4 10-10 10-5 0-10-4-10-10z"/><path d="m2080 2540c0-5 5-10 10-10 6 0 10 5 10 10 0 6-4 10-10 10-5 0-10-4-10-10z"/><path d="m3527 2535c-5-10 0-15 14-15 12 0 19 5 17 12-6 18-25 20-31 3z"/><path d="m3690 2540c0-5 5-10 10-10 6 0 10 5 10 10 0 6-4 10-10 10-5 0-10-4-10-10z"/><path d="m3740 2540c0-5 7-10 16-10 8 0 12 5 9 10-3 6-10 10-16 10-5 0-9-4-9-10z"/><path d="m3790 2540c0-5 7-10 15-10s15 5 15 10c0 6-7 10-15 10s-15-4-15-10z"/><path d="m3845 2540c-3-5 1-10 9-10 9 0 16 5 16 10 0 6-4 10-9 10-6 0-13-4-16-10z"/><path d="m3900 2540c0-5 7-10 16-10 8 0 12 5 9 10-3 6-10 10-16 10-5 0-9-4-9-10z"/><path d="m3635 2500c-10-17 12-37 25-24 8 8 6 15-4 23-10 9-16 9-21 1z"/><path d="m1600 2490c0-5 5-10 10-10 6 0 10 5 10 10 0 6-4 10-10 10-5 0-10-4-10-10z"/><path d="m1660 2490c0-5 5-10 10-10 6 0 10 5 10 10 0 6-4 10-10 10-5 0-10-4-10-10z"/><path d="m1710 2490c0-5 5-10 10-10 6 0 10 5 10 10 0 6-4 10-10 10-5 0-10-4-10-10z"/><path d="m1760 2490c0-5 5-10 10-10 6 0 10 5 10 10 0 6-4 10-10 10-5 0-10-4-10-10z"/><path d="m1870 2490c0-5 5-10 10-10 6 0 10 5 10 10 0 6-4 10-10 10-5 0-10-4-10-10z"/><path d="m1920 2490c0-5 5-10 10-10 6 0 10 5 10 10 0 6-4 10-10 10-5 0-10-4-10-10z"/><path d="m1972 2489c2-6 8-10 13-10s11 4 13 10-4 11-13 11-15-5-13-11z"/><path d="m2030 2490c0-5 5-10 10-10 6 0 10 5 10 10 0 6-4 10-10 10-5 0-10-4-10-10z"/><path d="m2080 2490c0-5 5-10 10-10 6 0 10 5 10 10 0 6-4 10-10 10-5 0-10-4-10-10z"/><path d="m3476 2484c-8-21-8-21 9-21 8 0 15 6 15 13 0 20-17 26-24 8z"/><path d="m3526 2484c-9-22-8-23 13-17 12 3 17 11 14 19-7 19-19 18-27-2z"/><path d="m3586 2493c-11-11-6-23 9-23 8 0 15 4 15 9 0 13-16 22-24 14z"/><path d="m3690 2490c0-5 5-10 10-10 6 0 10 5 10 10 0 6-4 10-10 10-5 0-10-4-10-10z"/><path d="m3740 2490c0-5 7-10 16-10 8 0 12 5 9 10-3 6-10 10-16 10-5 0-9-4-9-10z"/><path d="m3790 2491c0-5 7-11 15-15 9-3 15 0 15 9 0 8-7 15-15 15s-15-4-15-9z"/><path d="m3846 2485c4-8 10-12 15-9 14 8 10 24-6 24-9 0-12-6-9-15z"/><path d="m3900 2485c0-9 5-15 11-13s11 8 11 13-5 11-11 13-11-4-11-13z"/><path d="m1605 2440c-3-5 1-10 10-10s13 5 10 10c-3 6-8 10-10 10s-7-4-10-10z"/><path d="m1660 2440c0-5 5-10 11-10 5 0 7 5 4 10-3 6-8 10-11 10-2 0-4-4-4-10z"/><path d="m1710 2440c0-5 5-10 10-10 6 0 10 5 10 10 0 6-4 10-10 10-5 0-10-4-10-10z"/><path d="m1765 2441c-3-5-1-12 5-16 5-3 10 1 10 9 0 18-6 21-15 7z"/><path d="m1815 2440c-3-5-1-10 4-10 6 0 11 5 11 10 0 6-2 10-4 10-3 0-8-4-11-10z"/><path d="m1870 2435c0-8 5-15 10-15 6 0 10 7 10 15s-4 15-10 15c-5 0-10-7-10-15z"/><path d="m1920 2435c0-8 5-15 10-15 6 0 10 7 10 15s-4 15-10 15c-5 0-10-7-10-15z"/><path d="m1976 2441c-4-5-2-12 3-15 5-4 12-2 15 3 4 5 2 12-3 15-5 4-12 2-15-3z"/><path d="m2030 2434c0-8 5-12 10-9 6 4 8 11 5 16-9 14-15 11-15-7z"/><path d="m2080 2435c0-8 5-15 10-15 6 0 10 7 10 15s-4 15-10 15c-5 0-10-7-10-15z"/><path d="m3476 2434c-8-22 1-31 16-16 9 9 9 15 1 23-7 7-12 5-17-7z"/><path d="m3534 2439c-3-6-1-16 5-22 8-8 11-5 11 11 0 24-5 28-16 11z"/><path d="m3587 2436c-3-8-2-18 4-22 16-9 22 2 11 21-8 15-10 16-15 1z"/><path d="m3637 2444c-8-8 1-24 14-24 5 0 9 7 9 15 0 15-12 20-23 9z"/><path d="m3850 2440c0-5 5-10 10-10 6 0 10 5 10 10 0 6-4 10-10 10-5 0-10-4-10-10z"/><path d="m3695 2430c3-5 8-10 11-10 2 0 4 5 4 10 0 6-5 10-11 10-5 0-7-4-4-10z"/><path d="m3800 2429c0-5 5-7 10-4 6 3 10 8 10 11 0 2-4 4-10 4-5 0-10-5-10-11z"/><path d="m3905 2430c3-5 8-10 11-10 2 0 4 5 4 10 0 6-5 10-11 10-5 0-7-4-4-10z"/><path d="m3476 2384c-9-22-8-24 9-24 8 0 15 6 15 14 0 22-17 28-24 10z"/><path d="m3586 2385c-9-23-8-25 9-25s19 9 6 28c-7 11-10 10-15-3z"/><path d="m3636 2392c-3-6-1-14 5-17 15-10 25 3 12 16-7 7-13 7-17 1z"/><path d="m1600 2380c0-5 7-10 15-10s15 5 15 10c0 6-7 10-15 10s-15-4-15-10z"/><path d="m1660 2380c0-5 5-10 10-10 6 0 10 5 10 10 0 6-4 10-10 10-5 0-10-4-10-10z"/><path d="m1710 2380c0-5 5-10 10-10 6 0 10 5 10 10 0 6-4 10-10 10-5 0-10-4-10-10z"/><path d="m1760 2380c0-5 5-10 10-10 6 0 10 5 10 10 0 6-4 10-10 10-5 0-10-4-10-10z"/><path d="m1810 2380c0-5 7-10 15-10s15 5 15 10c0 6-7 10-15 10s-15-4-15-10z"/><path d="m1870 2380c0-5 5-10 10-10 6 0 10 5 10 10 0 6-4 10-10 10-5 0-10-4-10-10z"/><path d="m1920 2380c0-5 5-10 10-10 6 0 10 5 10 10 0 6-4 10-10 10-5 0-10-4-10-10z"/><path d="m1970 2380c0-5 7-10 15-10s15 5 15 10c0 6-7 10-15 10s-15-4-15-10z"/><path d="m2030 2380c0-5 5-10 10-10 6 0 10 5 10 10 0 6-4 10-10 10-5 0-10-4-10-10z"/><path d="m2080 2380c0-5 5-10 10-10 6 0 10 5 10 10 0 6-4 10-10 10-5 0-10-4-10-10z"/><path d="m3530 2375c0-8 7-15 15-15 9 0 12 6 9 15-4 8-10 15-15 15s-9-7-9-15z"/><path d="m3690 2380c0-5 5-10 10-10 6 0 10 5 10 10 0 6-4 10-10 10-5 0-10-4-10-10z"/><path d="m3740 2380c0-5 5-10 10-10 6 0 10 5 10 10 0 6-4 10-10 10-5 0-10-4-10-10z"/><path d="m3800 2380c0-5 5-10 10-10 6 0 10 5 10 10 0 6-4 10-10 10-5 0-10-4-10-10z"/><path d="m3850 2380c0-5 5-10 10-10 6 0 10 5 10 10 0 6-4 10-10 10-5 0-10-4-10-10z"/><path d="m3900 2380c0-5 5-10 10-10 6 0 10 5 10 10 0 6-4 10-10 10-5 0-10-4-10-10z"/><path d="m3950 2380c0-5 7-10 15-10s15 5 15 10c0 6-7 10-15 10s-15-4-15-10z"/><path d="m2570 2330c0-13 7-20 20-20s20 7 20 20-7 20-20 20-20-7-20-20z"/><path d="m2620 2330c0-13 7-20 20-20s20 7 20 20-7 20-20 20-20-7-20-20z"/><path d="m3635 2340c-4-6-3-16 3-22s12-6 17 2c4 6 3 16-3 22s-12 6-17-2z"/><path d="m1600 2330c0-5 4-10 9-10 6 0 13 5 16 10 3 6-1 10-9 10-9 0-16-4-16-10z"/><path d="m1660 2330c0-5 5-10 10-10 6 0 10 5 10 10 0 6-4 10-10 10-5 0-10-4-10-10z"/><path d="m1710 2330c0-5 5-10 10-10 6 0 10 5 10 10 0 6-4 10-10 10-5 0-10-4-10-10z"/><path d="m1760 2330c0-5 5-10 10-10 6 0 10 5 10 10 0 6-4 10-10 10-5 0-10-4-10-10z"/><path d="m1810 2330c0-5 5-10 10-10 6 0 10 5 10 10 0 6-4 10-10 10-5 0-10-4-10-10z"/><path d="m1870 2330c0-5 5-10 10-10 6 0 10 5 10 10 0 6-4 10-10 10-5 0-10-4-10-10z"/><path d="m1920 2330c0-5 5-10 10-10 6 0 10 5 10 10 0 6-4 10-10 10-5 0-10-4-10-10z"/><path d="m1970 2330c0-5 7-10 15-10s15 5 15 10c0 6-7 10-15 10s-15-4-15-10z"/><path d="m2030 2330c0-5 5-10 10-10 6 0 10 5 10 10 0 6-4 10-10 10-5 0-10-4-10-10z"/><path d="m2080 2330c0-5 5-10 10-10 6 0 10 5 10 10 0 6-4 10-10 10-5 0-10-4-10-10z"/><path d="m3476 2325c-3-9 0-15 9-15 16 0 20 16 6 24-5 3-11-1-15-9z"/><path d="m3535 2330c-8-13-1-24 14-19 6 3 7 10 2 18-6 10-10 10-16 1z"/><path d="m3585 2330c-8-13-1-24 14-19 6 3 7 10 2 18-6 10-10 10-16 1z"/><path d="m3690 2330c0-5 5-10 10-10 6 0 10 5 10 10 0 6-4 10-10 10-5 0-10-4-10-10z"/><path d="m3740 2330c0-5 5-10 10-10 6 0 10 5 10 10 0 6-4 10-10 10-5 0-10-4-10-10z"/><path d="m3800 2330c0-5 5-10 10-10 6 0 10 5 10 10 0 6-4 10-10 10-5 0-10-4-10-10z"/><path d="m3850 2330c0-5 5-10 10-10 6 0 10 5 10 10 0 6-4 10-10 10-5 0-10-4-10-10z"/><path d="m3900 2330c0-5 5-10 10-10 6 0 10 5 10 10 0 6-4 10-10 10-5 0-10-4-10-10z"/><path d="m3955 2330c3-5 10-10 16-10 5 0 9 5 9 10 0 6-7 10-16 10-8 0-12-4-9-10z"/><path d="m4010 2330c0-5 5-10 10-10 6 0 10 5 10 10 0 6-4 10-10 10-5 0-10-4-10-10z"/><path d="m2570 2274c0-14 4-23 9-19 5 3 12 1 16-5 3-5-1-10-9-10-9 0-16-9-16-20 0-13 7-20 20-20 17 0 20 7 20 50s-3 50-20 50c-15 0-20-7-20-26z"/><path d="m2622 2250c0-42 3-50 19-50s19 8 19 50-3 50-19 50-19-8-19-50z"/><path d="m1602 2281c2-7 7-12 11-12 12 1 9 15-3 20-7 2-11-2-8-8z"/><path d="m1660 2274c0-8 5-12 10-9 6 3 10 10 10 16 0 5-4 9-10 9-5 0-10-7-10-16z"/><path d="m1710 2275c0-8 5-15 10-15 6 0 10 7 10 15s-4 15-10 15c-5 0-10-7-10-15z"/><path d="m1760 2281c0-6 5-13 10-16 6-3 10 1 10 9 0 9-4 16-10 16-5 0-10-4-10-9z"/><path d="m1820 2274c0-8 5-12 10-9 6 4 8 11 5 16-9 14-15 11-15-7z"/><path d="m1870 2281c0-6 5-13 10-16 6-3 10 1 10 9 0 9-4 16-10 16-5 0-10-4-10-9z"/><path d="m1920 2275c0-8 5-15 10-15 6 0 10 7 10 15s-4 15-10 15c-5 0-10-7-10-15z"/><path d="m1976 2281c-4-5-2-12 3-15 5-4 12-2 15 3 4 5 2 12-3 15-5 4-12 2-15-3z"/><path d="m2030 2274c0-8 5-12 10-9 6 3 10 10 10 16 0 5-4 9-10 9-5 0-10-7-10-16z"/><path d="m2080 2275c0-8 5-15 10-15 6 0 10 7 10 15s-4 15-10 15c-5 0-10-7-10-15z"/><path d="m3476 2275c-3-9 0-15 9-15 16 0 20 16 6 24-5 3-11-1-15-9z"/><path d="m3535 2280c-8-13-1-24 14-19 6 3 7 10 2 18-6 10-10 10-16 1z"/><path d="m3586 2275c-3-9 0-15 9-15s12 6 9 15c-4 8-7 15-9 15s-5-7-9-15z"/><path d="m3635 2281c-6-11 9-23 19-14 9 9 7 23-3 23-6 0-12-4-16-9z"/><path d="m3690 2281c0-6 5-13 10-16 6-3 10 1 10 9 0 9-4 16-10 16-5 0-10-4-10-9z"/><path d="m3740 2281c0-6 5-13 10-16 6-3 10 1 10 9 0 9-4 16-10 16-5 0-10-4-10-9z"/><path d="m3795 2280c-3-5 1-10 9-10 9 0 16 5 16 10 0 6-4 10-9 10-6 0-13-4-16-10z"/><path d="m3850 2275c0-8 5-15 10-15 6 0 10 7 10 15s-4 15-10 15c-5 0-10-7-10-15z"/><path d="m3900 2281c0-6 5-13 10-16 6-3 10 1 10 9 0 9-4 16-10 16-5 0-10-4-10-9z"/><path d="m3960 2280c0-5 5-10 11-10 5 0 7 5 4 10-3 6-8 10-11 10-2 0-4-4-4-10z"/><path d="m4010 2274c0-8 5-12 10-9 6 3 10 10 10 16 0 5-4 9-10 9-5 0-10-7-10-16z"/><path d="m2843 2243c-7-3-13-13-13-24 0-23 35-26 43-5 7 17-13 35-30 29z"/><path d="m3100 2224c0-17 6-24 20-24 13 0 20 7 20 19 0 10-9 21-20 24-16 4-20 0-20-19z"/><path d="m1975 2229c-10-15 3-25 16-12 7 7 7 13 1 17-6 3-14 1-17-5z"/><path d="m2670 2221c0-16 8-19 50-19s50 3 50 19-8 19-50 19-50-3-50-19z"/><path d="m2884 2223c2-10 13-19 24-21 17-3 22 2 22 17 0 16-6 21-24 21-17 0-24-5-22-17z"/><path d="m3040 2220c0-13 7-20 18-20 24 0 32 8 25 26-8 22-43 17-43-6z"/><path d="m3586 2224c-8-20-4-25 11-16 7 4 9 13 4 21-6 10-10 9-15-5z"/><path d="m3636 2232c-3-6-1-14 5-17 15-10 25 3 12 16-7 7-13 7-17 1z"/><path d="m1600 2220c0-5 5-10 10-10 6 0 10 5 10 10 0 6-4 10-10 10-5 0-10-4-10-10z"/><path d="m1660 2220c0-5 5-10 10-10 6 0 10 5 10 10 0 6-4 10-10 10-5 0-10-4-10-10z"/><path d="m1710 2220c0-5 5-10 10-10 6 0 10 5 10 10 0 6-4 10-10 10-5 0-10-4-10-10z"/><path d="m1760 2220c0-5 5-10 10-10 6 0 10 5 10 10 0 6-4 10-10 10-5 0-10-4-10-10z"/><path d="m1815 2220c4-6 11-8 16-5 14 9 11 15-7 15-8 0-12-5-9-10z"/><path d="m1870 2220c0-5 5-10 10-10 6 0 10 5 10 10 0 6-4 10-10 10-5 0-10-4-10-10z"/><path d="m1920 2220c0-5 5-10 10-10 6 0 10 5 10 10 0 6-4 10-10 10-5 0-10-4-10-10z"/><path d="m2025 2220c3-5 10-10 16-10 5 0 9 5 9 10 0 6-7 10-16 10-8 0-12-4-9-10z"/><path d="m2080 2220c0-5 5-10 10-10 6 0 10 5 10 10 0 6-4 10-10 10-5 0-10-4-10-10z"/><path d="m3480 2221c0-6 5-13 10-16 6-3 10 1 10 9 0 9-4 16-10 16-5 0-10-4-10-9z"/><path d="m3530 2220c0-5 5-10 10-10 6 0 10 5 10 10 0 6-4 10-10 10-5 0-10-4-10-10z"/><path d="m3690 2220c0-5 5-10 10-10 6 0 10 5 10 10 0 6-4 10-10 10-5 0-10-4-10-10z"/><path d="m3740 2220c0-5 5-10 10-10 6 0 10 5 10 10 0 6-4 10-10 10-5 0-10-4-10-10z"/><path d="m3795 2220c3-5 10-10 16-10 5 0 9 5 9 10 0 6-7 10-16 10-8 0-12-4-9-10z"/><path d="m3850 2220c0-5 5-10 10-10 6 0 10 5 10 10 0 6-4 10-10 10-5 0-10-4-10-10z"/><path d="m3900 2220c0-5 5-10 10-10 6 0 10 5 10 10 0 6-4 10-10 10-5 0-10-4-10-10z"/><path d="m3955 2220c4-6 11-8 16-5 14 9 11 15-7 15-8 0-12-5-9-10z"/><path d="m4010 2220c0-5 5-10 10-10 6 0 10 5 10 10 0 6-4 10-10 10-5 0-10-4-10-10z"/><path d="m2570 2170c0-13 7-20 20-20s20 7 20 20-7 20-20 20-20-7-20-20z"/><path d="m2620 2170c0-13 7-20 20-20s20 7 20 20-7 20-20 20-20-7-20-20z"/><path d="m2670 2171c0-16 8-19 50-19s50 3 50 19-8 19-50 19-50-3-50-19z"/><path d="m2780 2170c0-13 7-20 20-20s20 7 20 20-7 20-20 20-20-7-20-20z"/><path d="m2830 2171c0-16 8-19 50-19s50 3 50 19-8 19-50 19-50-3-50-19z"/><path d="m2940 2170c0-13 7-20 20-20s20 7 20 20-7 20-20 20-20-7-20-20z"/><path d="m2990 2170c0-13 7-20 20-20s20 7 20 20-7 20-20 20-20-7-20-20z"/><path d="m3040 2170c0-16 5-21 23-18 12 2 22 10 22 18s-10 16-22 18c-18 3-23-2-23-18z"/><path d="m3100 2170c0-13 7-20 20-20s20 7 20 20-7 20-20 20-20-7-20-20z"/><path d="m3150 2170c0-13 7-20 20-20s20 7 20 20-7 20-20 20-20-7-20-20z"/><path d="m3360 2170c0-13 7-20 20-20s20 7 20 20-7 20-20 20-20-7-20-20z"/><path d="m3417 2183c-16-15-6-33 18-33 18 0 25 5 25 20 0 20-28 28-43 13z"/><path d="m3635 2180c-4-6-3-16 3-22s12-6 17 2c4 6 3 16-3 22s-12 6-17-2z"/><path d="m1600 2170c0-5 4-10 9-10 6 0 13 5 16 10 3 6-1 10-9 10-9 0-16-4-16-10z"/><path d="m1660 2170c0-5 5-10 10-10 6 0 10 5 10 10 0 6-4 10-10 10-5 0-10-4-10-10z"/><path d="m1710 2170c0-5 5-10 10-10 6 0 10 5 10 10 0 6-4 10-10 10-5 0-10-4-10-10z"/><path d="m1760 2170c0-5 5-10 10-10 6 0 10 5 10 10 0 6-4 10-10 10-5 0-10-4-10-10z"/><path d="m1815 2170c4-6 11-8 16-5 14 9 11 15-7 15-8 0-12-5-9-10z"/><path d="m1870 2170c0-5 5-10 10-10 6 0 10 5 10 10 0 6-4 10-10 10-5 0-10-4-10-10z"/><path d="m1920 2170c0-5 5-10 10-10 6 0 10 5 10 10 0 6-4 10-10 10-5 0-10-4-10-10z"/><path d="m1970 2170c0-5 7-10 15-10s15 5 15 10c0 6-7 10-15 10s-15-4-15-10z"/><path d="m2030 2170c0-5 5-10 10-10 6 0 10 5 10 10 0 6-4 10-10 10-5 0-10-4-10-10z"/><path d="m2080 2170c0-5 5-10 10-10 6 0 10 5 10 10 0 6-4 10-10 10-5 0-10-4-10-10z"/><path d="m3476 2165c-3-9 0-15 9-15 16 0 20 16 6 24-5 3-11-1-15-9z"/><path d="m3530 2165c0-8 7-15 15-15 9 0 12 6 9 15-4 8-10 15-15 15s-9-7-9-15z"/><path d="m3586 2173c-11-11-6-23 9-23 8 0 15 4 15 9 0 13-16 22-24 14z"/><path d="m3690 2170c0-5 5-10 10-10 6 0 10 5 10 10 0 6-4 10-10 10-5 0-10-4-10-10z"/><path d="m3740 2170c0-5 5-10 10-10 6 0 10 5 10 10 0 6-4 10-10 10-5 0-10-4-10-10z"/><path d="m3800 2170c0-5 5-10 10-10 6 0 10 5 10 10 0 6-4 10-10 10-5 0-10-4-10-10z"/><path d="m3850 2170c0-5 5-10 10-10 6 0 10 5 10 10 0 6-4 10-10 10-5 0-10-4-10-10z"/><path d="m3900 2170c0-5 5-10 10-10 6 0 10 5 10 10 0 6-4 10-10 10-5 0-10-4-10-10z"/><path d="m3950 2170c0-5 5-10 10-10 6 0 10 5 10 10 0 6-4 10-10 10-5 0-10-4-10-10z"/><path d="m4010 2170c0-5 5-10 10-10 6 0 10 5 10 10 0 6-4 10-10 10-5 0-10-4-10-10z"/><path d="m2570 2114c0-14 4-23 9-19 5 3 12 1 16-5 3-5-1-10-9-10-9 0-16-9-16-20 0-13 7-20 20-20 17 0 20 7 20 50s-3 50-20 50c-15 0-20-7-20-26z"/><path d="m2622 2090c0-42 3-50 19-50s19 8 19 50-3 50-19 50-19-8-19-50z"/><path d="m2670 2121c0-26 17-36 35-21 12 10 18 10 30 0 18-15 35-5 35 21 0 22-35 27-44 7-5-10-7-10-12 0-9 20-44 15-44-7z"/><path d="m2780 2090c0-42 3-50 19-50s19 8 19 50c1 43-2 50-19 50-16 0-19-7-19-50z"/><path d="m2832 2118c3-23 27-32 40-14 4 6 12 5 22-3 19-16 36-6 36 20 0 22-35 27-44 7-5-10-7-10-12 0-3 6-15 12-26 12-14 0-19-6-16-22z"/><path d="m2940 2090c0-42 3-50 19-50s19 8 19 50-3 50-19 50-19-8-19-50z"/><path d="m2990 2090c0-43 3-50 20-50 13 0 20 7 20 20 0 11-7 20-16 20-8 0-12 5-9 10 4 6 11 8 16 5 5-4 9 5 9 19 0 19-5 26-20 26-17 0-20-7-20-50z"/><path d="m3040 2121c0-27 19-36 37-18s9 37-18 37c-12 0-19-7-19-19z"/><path d="m3102 2090c-1-43 2-50 19-50 25 0 27 40 2 40-17 1-17 1 0 14 23 18 22 46-2 46-16 0-19-8-19-50z"/><path d="m3150 2120c0-11 5-20 10-20 6 0 10-5 10-11 0-5-4-7-10-4-6 4-10-5-10-19 0-19 5-26 19-26 16 0 19 8 19 50s-3 50-19 50c-12 0-19-7-19-20z"/><path d="m3419 2135c-8-31 4-47 28-38 21 8 16 43-7 43-11 0-21-2-21-5z"/><path d="m1600 2120c0-5 7-10 16-10 8 0 12 5 9 10-3 6-10 10-16 10-5 0-9-4-9-10z"/><path d="m1660 2120c0-5 5-10 10-10 6 0 10 5 10 10 0 6-4 10-10 10-5 0-10-4-10-10z"/><path d="m1710 2120c0-5 5-10 10-10 6 0 10 5 10 10 0 6-4 10-10 10-5 0-10-4-10-10z"/><path d="m1760 2120c0-5 5-10 10-10 6 0 10 5 10 10 0 6-4 10-10 10-5 0-10-4-10-10z"/><path d="m1815 2120c-3-5 1-10 10-10s13 5 10 10c-3 6-8 10-10 10s-7-4-10-10z"/><path d="m1870 2121c0-6 5-13 10-16 6-3 10 1 10 9 0 9-4 16-10 16-5 0-10-4-10-9z"/><path d="m1920 2120c0-5 5-10 10-10 6 0 10 5 10 10 0 6-4 10-10 10-5 0-10-4-10-10z"/><path d="m1976 2121c-4-5-2-12 3-15 5-4 12-2 15 3 4 5 2 12-3 15-5 4-12 2-15-3z"/><path d="m2025 2120c-3-5 1-10 9-10 9 0 16 5 16 10 0 6-4 10-9 10-6 0-13-4-16-10z"/><path d="m2080 2120c0-5 5-10 10-10 6 0 10 5 10 10 0 6-4 10-10 10-5 0-10-4-10-10z"/><path d="m3476 2115c-3-9 0-15 9-15 16 0 20 16 6 24-5 3-11-1-15-9z"/><path d="m3585 2120c-8-13-1-24 14-19 6 3 7 10 2 18-6 10-10 10-16 1z"/><path d="m3636 2121c-4-5-2-12 3-15 5-4 12-2 15 3 4 5 2 12-3 15-5 4-12 2-15-3z"/><path d="m3530 2110c0-5 7-10 16-10 8 0 12 5 9 10-3 6-10 10-16 10-5 0-9-4-9-10z"/><path d="m2843 2083c-7-3-13-13-13-24 0-23 35-26 43-5 7 17-13 35-30 29z"/><path d="m3414 2075c-8-20 4-35 27-35 12 0 19 7 19 19 0 23-39 36-46 16z"/><path d="m1605 2069c-10-15 3-25 16-12 7 7 7 13 1 17-6 3-14 1-17-5z"/><path d="m1660 2066c0-9 5-16 10-16 6 0 10 4 10 9 0 6-4 13-10 16-5 3-10-1-10-9z"/><path d="m1870 2066c0-9 5-16 10-16 6 0 10 4 10 9 0 6-4 13-10 16-5 3-10-1-10-9z"/><path d="m1926 2071c-4-7-5-15-2-18 9-9 19 4 14 18-4 11-6 11-12 0z"/><path d="m1976 2071c-4-5-2-12 3-15 5-4 12-2 15 3 4 5 2 12-3 15-5 4-12 2-15-3z"/><path d="m2026 2072c-3-6-1-14 5-17 15-10 25 3 12 16-7 7-13 7-17 1z"/><path d="m2080 2065c0-8 5-15 10-15 6 0 10 7 10 15s-4 15-10 15c-5 0-10-7-10-15z"/><path d="m2670 2061c0-16 8-19 50-19s50 3 50 19-8 19-50 19-50-3-50-19z"/><path d="m2884 2063c2-10 13-19 24-21 17-3 22 2 22 17 0 16-6 21-24 21-17 0-24-5-22-17z"/><path d="m3040 2060c0-13 7-20 18-20 24 0 32 8 25 26-8 22-43 17-43-6z"/><path d="m3636 2071c-4-5-2-12 3-15 5-4 12-2 15 3 4 5 2 12-3 15-5 4-12 2-15-3z"/><path d="m1710 2060c0-5 5-10 10-10 6 0 10 5 10 10 0 6-4 10-10 10-5 0-10-4-10-10z"/><path d="m1760 2060c0-5 5-10 10-10 6 0 10 5 10 10 0 6-4 10-10 10-5 0-10-4-10-10z"/><path d="m1815 2060c3-5 8-10 11-10 2 0 4 5 4 10 0 6-5 10-11 10-5 0-7-4-4-10z"/><path d="m3480 2060c0-5 5-10 11-10 5 0 7 5 4 10-3 6-8 10-11 10-2 0-4-4-4-10z"/><path d="m3530 2060c0-5 5-10 10-10 6 0 10 5 10 10 0 6-4 10-10 10-5 0-10-4-10-10z"/><path d="m3585 2060c-3-5 1-10 10-10s13 5 10 10c-3 6-8 10-10 10s-7-4-10-10z"/><path d="m4010 2059c0-5 5-7 10-4 6 3 10 8 10 11 0 2-4 4-10 4-5 0-10-5-10-11z"/><path d="m2570 2010c0-13 7-20 20-20s20 7 20 20-7 20-20 20-20-7-20-20z"/><path d="m2620 2010c0-13 7-20 20-20s20 7 20 20-7 20-20 20-20-7-20-20z"/><path d="m2670 2011c0-16 8-19 50-19s50 3 50 19-8 19-50 19-50-3-50-19z"/><path d="m2780 2010c0-13 7-20 20-20s20 7 20 20-7 20-20 20-20-7-20-20z"/><path d="m2830 2010c0-23 35-28 43-6 7 18-1 26-25 26-11 0-18-7-18-20z"/><path d="m2884 2013c2-10 13-19 24-21 17-3 22 2 22 17 0 16-6 21-24 21-17 0-24-5-22-17z"/><path d="m2940 2010c0-13 7-20 20-20s20 7 20 20-7 20-20 20-20-7-20-20z"/><path d="m2990 2010c0-13 7-20 20-20s20 7 20 20-7 20-20 20-20-7-20-20z"/><path d="m3040 2010c0-13 7-20 18-20 24 0 32 8 25 26-8 22-43 17-43-6z"/><path d="m3100 2010c0-13 7-20 20-20s20 7 20 20-7 20-20 20-20-7-20-20z"/><path d="m3150 2010c0-13 7-20 20-20s20 7 20 20-7 20-20 20-20-7-20-20z"/><path d="m1600 2010c0-5 4-10 9-10 6 0 13 5 16 10 3 6-1 10-9 10-9 0-16-4-16-10z"/><path d="m1660 2010c0-5 5-10 10-10 6 0 10 5 10 10 0 6-4 10-10 10-5 0-10-4-10-10z"/><path d="m1710 2010c0-5 5-10 10-10 6 0 10 5 10 10 0 6-4 10-10 10-5 0-10-4-10-10z"/><path d="m1760 2010c0-5 5-10 10-10 6 0 10 5 10 10 0 6-4 10-10 10-5 0-10-4-10-10z"/><path d="m1815 2010c-3-5 1-10 9-10 9 0 16 5 16 10 0 6-4 10-9 10-6 0-13-4-16-10z"/><path d="m1870 2010c0-5 5-10 10-10 6 0 10 5 10 10 0 6-4 10-10 10-5 0-10-4-10-10z"/><path d="m1920 2010c0-5 5-10 10-10 6 0 10 5 10 10 0 6-4 10-10 10-5 0-10-4-10-10z"/><path d="m1970 2010c0-5 7-10 15-10s15 5 15 10c0 6-7 10-15 10s-15-4-15-10z"/><path d="m2030 2010c0-5 5-10 10-10 6 0 10 5 10 10 0 6-4 10-10 10-5 0-10-4-10-10z"/><path d="m2080 2010c0-5 5-10 10-10 6 0 10 5 10 10 0 6-4 10-10 10-5 0-10-4-10-10z"/><path d="m3480 2011c0-5 5-13 10-16 6-3 10-2 10 4 0 5-4 13-10 16-5 3-10 2-10-4z"/><path d="m3530 2011c0-6 5-13 10-16 6-3 10 1 10 9 0 9-4 16-10 16-5 0-10-4-10-9z"/><path d="m3585 2011c-3-5-1-12 5-16 5-3 10 1 10 9 0 18-6 21-15 7z"/><path d="m3640 2010c0-5 5-10 10-10 6 0 10 5 10 10 0 6-4 10-10 10-5 0-10-4-10-10z"/><path d="m3690 2010c0-5 5-10 10-10 6 0 10 5 10 10 0 6-4 10-10 10-5 0-10-4-10-10z"/><path d="m3800 2009c0-5 5-7 10-4 6 3 10 8 10 11 0 2-4 4-10 4-5 0-10-5-10-11z"/><path d="m3850 2010c0-5 5-10 10-10 6 0 10 5 10 10 0 6-4 10-10 10-5 0-10-4-10-10z"/><path d="m3905 2010c3-5 8-10 11-10 2 0 4 5 4 10 0 6-5 10-11 10-5 0-7-4-4-10z"/><path d="m4010 2009c0-5 5-7 10-4 6 3 10 8 10 11 0 2-4 4-10 4-5 0-10-5-10-11z"/><path d="m2570 1960c0-13 7-20 20-20s20 7 20 20-7 20-20 20-20-7-20-20z"/><path d="m2620 1960c0-13 7-20 20-20s20 7 20 20-7 20-20 20-20-7-20-20z"/><path d="m2677 1973c-14-13-6-33 13-33 13 0 20 7 20 20 0 19-20 27-33 13z"/><path d="m2730 1961c0-15 6-21 21-21 25 0 22 33-4 38-12 2-17-3-17-17z"/><path d="m2780 1960c0-13 7-20 20-20s20 7 20 20-7 20-20 20-20-7-20-20z"/><path d="m2836 1964c-9-23-8-24 14-24 13 0 20 7 20 20 0 24-25 27-34 4z"/><path d="m2890 1961c0-15 6-21 21-21 14 0 19 5 17 17-5 26-38 29-38 4z"/><path d="m2940 1960c0-13 7-20 20-20s20 7 20 20-7 20-20 20-20-7-20-20z"/><path d="m2990 1960c0-13 7-20 20-20s20 7 20 20-7 20-20 20-20-7-20-20z"/><path d="m3047 1966c-7-16 1-26 20-26 7 0 13 9 13 20 0 23-25 27-33 6z"/><path d="m3100 1960c0-23 25-27 33-6 7 16-1 26-20 26-7 0-13-9-13-20z"/><path d="m3150 1960c0-13 7-20 20-20s20 7 20 20-7 20-20 20-20-7-20-20z"/><path d="m1600 1960c0-5 5-10 10-10 6 0 10 5 10 10 0 6-4 10-10 10-5 0-10-4-10-10z"/><path d="m1660 1960c0-5 5-10 10-10 6 0 10 5 10 10 0 6-4 10-10 10-5 0-10-4-10-10z"/><path d="m1710 1960c0-5 5-10 10-10 6 0 10 5 10 10 0 6-4 10-10 10-5 0-10-4-10-10z"/><path d="m1760 1960c0-5 5-10 10-10 6 0 10 5 10 10 0 6-4 10-10 10-5 0-10-4-10-10z"/><path d="m1820 1960c0-5 5-10 11-10 5 0 7 5 4 10-3 6-8 10-11 10-2 0-4-4-4-10z"/><path d="m1870 1960c0-5 5-10 10-10 6 0 10 5 10 10 0 6-4 10-10 10-5 0-10-4-10-10z"/><path d="m1920 1960c0-5 5-10 10-10 6 0 10 5 10 10 0 6-4 10-10 10-5 0-10-4-10-10z"/><path d="m1972 1961c2-7 7-12 11-12 12 1 9 15-3 20-7 2-11-2-8-8z"/><path d="m2030 1960c0-5 5-10 10-10 6 0 10 5 10 10 0 6-4 10-10 10-5 0-10-4-10-10z"/><path d="m2080 1960c0-5 5-10 10-10 6 0 10 5 10 10 0 6-4 10-10 10-5 0-10-4-10-10z"/><path d="m3480 1956c0-9 5-16 10-16 6 0 10 4 10 9 0 6-4 13-10 16-5 3-10-1-10-9z"/><path d="m3585 1960c-8-13-1-24 14-19 6 3 7 10 2 18-6 10-10 10-16 1z"/><path d="m3635 1961c-6-11 9-23 19-14 9 9 7 23-3 23-6 0-12-4-16-9z"/><path d="m3530 1950c0-5 5-10 10-10 6 0 10 5 10 10 0 6-4 10-10 10-5 0-10-4-10-10z"/><path d="m2570 1910c0-13 7-20 20-20 24 0 27 25 4 34s-24 8-24-14z"/><path d="m2627 1924c-14-15-6-34 14-34 14 0 19 5 17 17-3 18-20 27-31 17z"/><path d="m2681 1920c-16-9-6-30 15-30 15 0 20 25 6 34-4 2-14 1-21-4z"/><path d="m2733 1914c-7-19 2-28 22-21 19 8 19 23 0 31-9 3-18-1-22-10z"/><path d="m2787 1924c-14-15-6-34 14-34 14 0 19 5 17 17-3 18-20 27-31 17z"/><path d="m2837 1924c-9-10 4-34 19-34 8 0 14 9 14 20 0 19-19 27-33 14z"/><path d="m2893 1914c-7-19 2-28 22-21 19 8 19 23 0 31-9 3-18-1-22-10z"/><path d="m2947 1924c-14-15-6-34 14-34 14 0 19 5 17 17-3 18-20 27-31 17z"/><path d="m3003 1923c-21-8-15-33 7-33 13 0 20 7 20 20 0 20-5 23-27 13z"/><path d="m3049 1928c-7-32-5-38 13-38 13 0 18 6 16 17-2 14-26 32-29 21z"/><path d="m3107 1923c-14-13-6-33 12-33 14 0 18 5 14 20-5 21-15 25-26 13z"/><path d="m3157 1924c-14-15-6-34 14-34 14 0 19 5 17 17-3 18-20 27-31 17z"/><path d="m1605 1910c-3-5 1-10 10-10s13 5 10 10c-3 6-8 10-10 10s-7-4-10-10z"/><path d="m1660 1910c0-5 5-10 11-10 5 0 7 5 4 10-3 6-8 10-11 10-2 0-4-4-4-10z"/><path d="m1875 1910c-3-5-1-10 4-10 6 0 11 5 11 10 0 6-2 10-4 10-3 0-8-4-11-10z"/><path d="m1920 1905c0-8 5-15 10-15 6 0 10 7 10 15s-4 15-10 15c-5 0-10-7-10-15z"/><path d="m1976 1911c-4-5-2-12 3-15 5-4 12-2 15 3 4 5 2 12-3 15-5 4-12 2-15-3z"/><path d="m2026 1911c-4-5-2-12 3-15 5-4 12-2 15 3 4 5 2 12-3 15-5 4-12 2-15-3z"/><path d="m2080 1905c0-8 5-15 10-15 6 0 10 7 10 15s-4 15-10 15c-5 0-10-7-10-15z"/><path d="m3586 1905c-3-9 0-15 9-15s12 6 9 15c-4 8-7 15-9 15s-5-7-9-15z"/><path d="m3636 1911c-4-5-2-12 3-15 5-4 12-2 15 3 4 5 2 12-3 15-5 4-12 2-15-3z"/><path d="m1710 1900c0-5 5-10 10-10 6 0 10 5 10 10 0 6-4 10-10 10-5 0-10-4-10-10z"/><path d="m1765 1900c3-5 8-10 11-10 2 0 4 5 4 10 0 6-5 10-11 10-5 0-7-4-4-10z"/><path d="m1820 1899c0-5 5-7 10-4 6 3 10 8 10 11 0 2-4 4-10 4-5 0-10-5-10-11z"/><path d="m3530 1900c0-5 5-10 10-10 6 0 10 5 10 10 0 6-4 10-10 10-5 0-10-4-10-10z"/><path d="m3805 1729c-38-11-55-34-55-75 0-40 12-49 96-77 65-21 69-24 69-52 0-23-7-33-30-44-29-14-42-12-127 16-10 3-18 0-18-6 0-19 58-41 110-41 41 0 56 5 75 25 40 39 29 94-22 113-15 5-49 17-75 27-42 15-48 20-48 45 0 45 60 65 124 40 41-15 42 8 2 25-39 17-57 17-101 4z"/><path d="m1610 1590c0-118 2-140 15-140s15 22 15 140-2 140-15 140-15-22-15-140z"/><path d="m1740 1591c0-117 2-141 15-141 12 0 15 21 17 110l3 109 88-109c48-61 92-110 97-110 6 0 10 55 10 140 0 118-2 140-15 140-12 0-15-19-15-111v-110l-86 108c-47 59-92 109-100 111-12 3-14-20-14-137z"/><path d="m2070 1590c0-116 2-140 15-140 12 0 15 21 17 110l3 109 88-109c48-61 92-110 97-110 6 0 10 55 10 140 0 116-2 140-15 140-11 0-15-21-17-107l-3-107-85 107c-47 59-91 107-97 107-10 0-13-35-13-140z"/><path d="m2476 1722c-2-4-32-67-65-140-42-92-55-132-46-132 8 0 24 18 35 40l20 40h75 75l20-40c26-52 56-57 35-6-80 192-129 270-149 238zm83-164c1-5-29-8-65-8-49 0-65 3-61 13 3 6 18 41 33 76l28 65 32-70c18-38 33-72 33-76z"/><path d="m2790 1590c0-118 2-140 15-140 10 0 15 11 15 35 0 25 9 44 30 67l30 33 26-30c80-90 96-106 109-103 10 2-7 28-49 78l-64 75 61 63c50 51 58 62 40 62-13 0-48-29-96-80-42-44-78-80-81-80s-6 36-6 80c0 64-3 80-15 80-13 0-15-22-15-140z"/><path d="m3082 1619c3-111 3-111 36-140 27-24 41-29 83-29 43 0 55 5 80 29 29 29 29 31 29 140 0 67-4 111-10 111s-10-33-10-77c0-87-13-144-35-163-25-21-94-16-118 9-19 19-22 35-25 126-3 86-7 105-19 105-13 0-15-17-11-111z"/><path d="m3400 1590v-140h95c78 0 95 3 95 15s-16 15-80 15h-80v125c0 104-2 125-15 125s-15-22-15-140z"/><path d="m3640 1590c0-118 2-140 15-140s15 22 15 140-2 140-15 140-15-22-15-140z"/><path d="m4020 1590c0-118 2-140 15-140 12 0 15 14 15 65v65h85 85v-65c0-51 3-65 15-65 13 0 15 22 15 140s-2 140-15 140c-12 0-15-13-15-60v-60h-85-85v60c0 47-3 60-15 60-13 0-15-22-15-140z"/></g></svg>